/* XPM */
static char *_a7d9b791be24477feee2cf89f2952f5dg4ARxZ3SHlR4Bva[] = {
/* columns rows colors chars-per-pixel */
"64 64 152 2 ",
"   c #30363F",
".  c #313740",
"X  c #353C44",
"o  c #563B43",
"O  c #663D46",
"+  c #6E3E47",
"@  c #663F48",
"#  c #3C444D",
"$  c #3E4751",
"%  c #3F4852",
"&  c #41454F",
"*  c #404750",
"=  c #424A54",
"-  c #4F4B55",
";  c #454E59",
":  c #584E59",
">  c #47515C",
",  c #49535D",
"<  c #52535E",
"1  c #6C454D",
"2  c #6A4751",
"3  c #654D58",
"4  c #684E59",
"5  c #784953",
"6  c #65525D",
"7  c #735059",
"8  c #4C5661",
"9  c #4E5964",
"0  c #4E5B69",
"q  c #515C66",
"w  c #5A5D67",
"e  c #525E69",
"r  c #585F6B",
"t  c #615D67",
"y  c #765D67",
"u  c #715E68",
"i  c #55626C",
"p  c #58646E",
"a  c #566571",
"s  c #5A6671",
"d  c #5D6A75",
"f  c #5E6D79",
"g  c #7A656F",
"h  c #616672",
"j  c #606C76",
"k  c #696973",
"l  c #616F7A",
"z  c #64727D",
"x  c #68757F",
"c  c #843F49",
"v  c #9B3E48",
"b  c #A53C46",
"n  c #A93C46",
"m  c #A73F49",
"M  c #A83E48",
"N  c #8D424C",
"B  c #97414C",
"V  c #9B454F",
"C  c #884853",
"Z  c #8C4F59",
"A  c #974954",
"S  c #9E4E57",
"D  c #9D4E58",
"F  c #80545E",
"G  c #89535C",
"H  c #9D535D",
"J  c #A5424C",
"K  c #A44751",
"L  c #A24A55",
"P  c #A04E59",
"I  c #A0555F",
"U  c #875965",
"Y  c #8F5864",
"T  c #835E69",
"R  c #885D69",
"E  c #9B5660",
"W  c #965A64",
"Q  c #9A5A64",
"!  c #965E68",
"~  c #A05661",
"^  c #8F656F",
"/  c #93636D",
"(  c #866773",
")  c #836A74",
"_  c #8D6B75",
"`  c #8D6E79",
"'  c #956771",
"]  c #926A75",
"[  c #986B76",
"{  c #8B747E",
"}  c #93727D",
"|  c #99717C",
" . c #667681",
".. c #697781",
"X. c #677883",
"o. c #6B7A85",
"O. c #6D7E89",
"+. c #717E87",
"@. c #707F89",
"#. c #7E7F89",
"$. c #877780",
"%. c #8B7780",
"&. c #857C86",
"*. c #8A7A83",
"=. c #857E88",
"-. c #947A83",
";. c #6F808B",
":. c #72838D",
">. c #7B858E",
",. c #758691",
"<. c #788791",
"1. c #768994",
"2. c #7B8C96",
"3. c #7C8E99",
"4. c #7D919C",
"5. c #7E919C",
"6. c #7F949F",
"7. c #7F95A0",
"8. c #83828D",
"9. c #89828A",
"0. c #93818C",
"q. c #848691",
"w. c #828C95",
"e. c #818F98",
"r. c #908994",
"t. c #819097",
"y. c #81919B",
"u. c #84939B",
"i. c #81939E",
"p. c #83949E",
"a. c #89959E",
"s. c #90919D",
"d. c #8396A1",
"f. c #8498A3",
"g. c #8798A3",
"h. c #8699A4",
"j. c #889AA5",
"k. c #899CA6",
"l. c #879DA9",
"z. c #899EA9",
"x. c #8A9EA9",
"c. c #8B9FA9",
"v. c #9895A0",
"b. c #8DA0AB",
"n. c #8DA1AD",
"m. c #8FA3AE",
"M. c #90A3AE",
"N. c #91A4AE",
"B. c #8EA4B1",
"V. c #90A5B1",
"C. c #93A9B4",
"Z. c #96AEBB",
/* pixels */
"f O.:.@.:.:.:.:.,.2.2.5.5.2.3.5.,.3.5.5.3.3.1.:.O.O.O.z > = q s z z x x X.X...X.O.o.X.X.z z z X.O.:.O.X...X.O.:.:.:.o.X.:.<.O.d ",
"f.j.h.i.p.p.f.f.f.k.z.m.N.V.C.j.z.m.z.l.h.h.f.d.h.k.h.,.e i 2.p.p.p.d.d.h.z.m.B.B.B.B.B.V.B.B.B.B.B.m.m.m.m.M.N.N.M.m.M.z.j.1.X.",
"b.z.p.2.2.2.2.2.2.2.2.3.5.i.i.,.3.3.3.3.3.3.3.5.5.5.5.O.e d h.p.2.2.2.3.3.3.5.7.5.6.d.d.h.h.h.h.h.d.p.p.p.i.u.u.u.y.y.y.y.y.:.d ",
"m.z.3.2.2.2.2.2.2.2.2.2.2.2.3.:.2.3.3.3.3.3.3.5.5.5.5.:.i z z.5.2.2.3.3.3.3.5.5.3.3.3.3.3.3.3.3.3.3.2.2.2.2.2.2.2.2.2.3.3.5.,.a ",
"V.b.3.2.2.2.2.2.2.2.2.2.2.2.3.:.2.3.3.5.5.3.3.3.3.3.5.,.i f z.d.2.3.3.5.5.5.5.5.5.5.5.3.3.3.3.3.3.3.3.2.2.w.w.2.w.w.3.5.5.5.O.i ",
"V.m.5.2.2.2.2.2.2.2.2.2.2.2.3.,.1.5.5.5.5.5.3.3.3.3.5.O.9 d b.d.2.2.3.3.5.5.5.5.5.5.5.5.5.3.3.3.3.3.2.2.2.3.e.e.3.3.5.5.5.2.X.e ",
"V.M.y.2.2.2.2.2.2.2.2.2.2.3.5.1.1.6.5.5.5.5.3.3.3.5.3.X.9 d z.p.2.2.3.3.5.5.5.5.5.5.5.5.5.3.3.3.3.3.2.3.3.3.w.e.3.5.5.5.,.,.l 0 ",
"z.M.y.2.2.2.2.2.2.2.2.2.2.3.5.5.:.5.5.5.5.5.3.3.3.3.5.O.e a h.d.2.2.2.3.3.5.5.5.5.5.5.5.5.3.3.3.3.3.3.5.5.y.e.w.3.3.3.,.X.O.s 9 ",
"z.M.3.2.2.2.2.2.2.2.2.2.3.5.5.p.5.2.2.5.5.3.3.5.3.3.5.,.s i h.d.2.2.2.3.3.3.5.5.5.5.5.5.3.3.3.3.3.2.3.5.y.y.3.2.2.2.:.1.5.3.X.i ",
"m.z.2.2.2.2.2.2.3.3.3.3.3.5.3.5.i.y.,.o.3.3.3.5.3.3.5.2.f i d.d.2.2.2.2.3.3.3.3.3.5.3.3.3.3.3.3.2.2.3.5.y.3.<.:.<.<.2.3.5.3.X.a ",
"m.h.2.2.2.2.2.3.3.3.3.5.5.3.3.y.y.y.5.<.1.3.3.3.3.3.3.3.z i p.f.2.2.2.2.2.3.3.3.3.3.3.3.3.3.3.3.2.2.5.y.y.>.<.y.y.e.3.3.5.3. .0 ",
"z.i.2.2.2.2.3.3.3.3.5.5.5.5.y.y.y.5.3.2.:.3.3.2.2.3.5.2.f s d.f.3.2.2.2.2.2.2.2.3.3.3.3.3.3.3.3.3.3.2.<.<.2.y.y.5.y.3.5.5.5.X.0 ",
"h.5.3.3.3.3.3.3.5.5.5.5.5.i.y.y.5.3.2.3.:.2.3.3.3.3.5.,.i f h.d.3.2.2.2.2.2.2.2.3.3.3.2.2.3.3.3.3.2.<.y.y.i.i.i.i.5.5.5.5.5.;.e ",
"k.d.3.2.2.2.3.3.3.3.5.5.5.2.2.2.2.2.2.2.:.:.2.2.2.2.y.:.e f h.i.2.2.2.2.2.2.2.1.,.1.2.2.2.2.2.2.2.:.2.y.y.5.2.2.2.3.5.5.3.:.z e ",
"h.2.X.z l l z ..x z z o.o.z l x z z z z i j z l z o.@.o.i a 3.o.l s s s j x j s s f ..o.x d s i i j o.o.o.l i e e s X.X.d 9 9 , ",
"O.z e 9 8 , , , 8 , 8 e i , > 9 q q q 9 , q q q 9 e s s 8 > s q , , , , 8 9 > ; > 8 q i q > = * > 8 q e i 8 ; > > > 8 9 > ; ; = ",
"X.X.X.x z z l f f d i i i e 9 9 , = = 9 z x s s f z X.X.d i p f z x z f f d f f l l s p 9 = $ e z f i 9 a d f z f f x x z f d f ",
"V.N.M.m.m.m.m.m.m.m.b.z.j.f.d.d.2.h w 3.m.b.z.m.V.V.V.m.z.h.z.V.V.N.b.z.z.z.z.m.s.| H E U 3 , 3.C.C.V.h.l.V.V.V.V.V.C.C.C.V.V.V.",
"j.k.z.z.h.f.d.d.d.f.j.k.k.k.k.k.2.T D | 0.w.e.a.j.p.p.i.i.i.f.f.p.i.y.5.5.i.w.-.~ M n n n B w d.b.z.m.m.z.B.m.z.h.f.h.h.h.f.f.f.",
"p.d.d.d.d.5.5.3.3.2.2.5.5.y.y.y.+.G n n m Q 9.w.y.y.t.2.2.2.2.3.2.2.3.3.2.2.! m n n n n n b y d.d.3.3.3.5.5.5.5.3.3.3.3.3.5.5.i.",
"d.d.p.d.d.5.5.5.3.3.e.y.y.y.y.5.@.Z n n n n E 9.y.y.w.3.3.3.3.3.2.2.3.2.2.>.S n n n n n n v u f.d.3.3.3.2.:.3.3.3.3.3.3.y.y.p.d.",
"p.p.p.p.d.5.5.3.3.5.y.y.y.i.i.5.;.F n n n n n P 9.t.w.y.5.5.3.3.3.3.3.2.2.` J n n n n n V 6 d h.5.3.3.3.<.:.2.3.3.2.3.e.y.i.p.d.",
"i.p.p.y.i.5.5.3.5.y.y.y.p.p.5.5.;.t v n n n n n Q w.y.5.5.5.3.3.2.e.2.3.{ J n n n n n S g 8 f z.5.3.3.2.:.3.3.2.2.2.2.2.3.i.d.p.",
"p.i.y.y.y.5.3.3.y.y.y.i.p.p.6.6.;.i 7 J n n n n J *.3.5.5.5.y.y.w.w.3.=.L n n n n n S &.o.> e z.m.3.3.,.2.3.3.3.2.2.2.2.3.i.p.p.",
"i.i.5.y.5.5.3.3.y.y.y.y.p.5.p.d.:.e i [ J n n n n Q w.5.5.y.y.y.w.3.q.H n n n n S _ #.<.X.8 9 z.Z.5.2.3.3.3.3.2.2.2.2.2.2.3.5.5.",
"3.3.3.5.3.5.5.3.t.w.y.y.i.5.6.p.@.q s f.-.J n n n n / e.p.p.u.y.y.w.Q n n n J / =.<.2.2.:.9 q b.C.3.2.3.2.3.3.2.2.2.2.2.3.3.3.3.",
"3.3.3.3.3.3.5.3.w.3.5.5.5.5.5.p.+.q p j.p.{ Q J n n n ' e.y.y.y.w.! n n n J { 2.2.2.2.2.:.i q z.h.2.2.2.3.3.2.2.2.2.2.2.2.3.3.3.",
"3.3.3.3.3.3.3.3.3.3.5.5.5.5.p.u.+.q i k.d.3.2.` J n n m ] w.2.>.W n n n J { 2.2.2.2.1.2.O.q e f.5.2.2.2.2.2.2.2.2.2.2.2.3.3.3.3.",
"5.5.5.3.3.3.2.3.3.3.5.5.5.p.p.p.:.e s k.k.6.5.5.} J n n J } w.Q n n n J %.5.2.2.2.2.2.2..., d f.3.3.3.1.2.2.2.3.2.2.2.2.3.3.3.3.",
":.:.:.:.:.:.,.,.,.,.,.,.,.,.,.:.x q i d.d.2.2.2.2.^ m n n J P n n n J ) <.:.:.:.:.:.:.O.l > d 3.1.,.,.,.,.,.,.:.:.:.,.,.,.,.:.:.",
"q q q q q q i p s i i i i p i e e > q O.x s p p i w 5 b n n n n n v 4 e e q i i e e e e e > 9 z d p i i i d s i i i i p s i i e ",
"$ # # # # # # * = * # # # # # # * $ * ; * # # # # # # + n n n n b o # = * $ $ $ $ = $ * $ $ $ = = = $ $ $ = = % = = = = * $ = = ",
"l z z f , # p z z f f l z x x z x x z x x x x x z z k N n n n n b 1 f o.;.o.x z z X.X.X...X.o.O.X.X.z l d s f f f s i s d z z l ",
"j.d.d.1.p = O.3.i.p.d.d.p.y.y.2.y.y.y.p.f.h.k.z.z.r.I n n n n n n J $.z.C.B.m.m.b.z.b.b.k.h.k.z.z.b.z.z.l.z.z.z.h.p.d.d.f.h.z.m.",
"i.5.5.,.i ; :.i.3.3.3.3.5.2.3.2.2.3.3.5.5.5.5.7.q.P n n n H / M n n L v.b.5.5.5.5.3.5.y.5.5.5.5.5.5.5.5.5.5.6.5.2.2.3.3.3.5.y.p.",
"3.3.3.:.i > :.2.2.3.3.3.3.5.2.<.3.3.3.3.3.3.5.q.H n n n H 8.2.Y n n n ~ w.3.3.3.2.2.2.2.3.3.3.3.2.2.2.3.2.2.3.3.2.:.2.2.2.2.2.2.",
"3.3.3.O.q , :.2.2.3.3.2.3.3.3.2.5.5.5.3.3.i.q.H n n n P 8.3.2.l C n n n ! 2.3.3.3.2.2.3.3.3.3.3.3.3.3.3.2.3.3.3.2.:.2.2.2.2.2.3.",
"3.3.5.O.9 , :.2.3.3.2.3.3.y.y.2.3.5.5.3.y.w.Q n n n K *.3.3.3.l < c n n n ] 3.3.3.3.2.3.3.3.3.3.3.3.3.2.3.3.3.2.2.<.<.2.2.2.3.3.",
"3.5.5.O.9 > 1.3.3.2.2.3.5.y.5.5.3.5.5.5.i.] n n n L =.5.3.3.3.l ; < W M n J ` 2.3.3.3.3.3.3.3.3.3.3.3.3.3.3.3.2.2.:.2.2.3.3.3.3.",
"5.5.5.X.9 , 2.3.3.2.2.3.5.5.5.5.3.5.5.5.%.K n n J *.5.5.3.5.3.l ; q 3.[ M n m _ 2.3.3.3.3.3.3.3.3.3.3.3.5.5.3.2.2.<.2.2.3.3.3.3.",
"5.5.5.X.8 > 2.5.2.2.2.3.5.5.5.2.5.5.5.{ J n n J ' w.5.3.3.3.5.z ; 9 2.i.] J n m ` 3.3.3.3.3.3.3.3.3.3.3.5.5.3.3.2.<.2.3.3.3.3.5.",
"5.5.3.z 8 , 2.3.2.2.3.3.3.5.5.3.5.5.%.J n n n Q w.3.3.3.3.3.5...; 9 5.p.2./ M n J ` 3.3.3.3.3.3.3.3.3.3.3.3.2.2.2.<.2.3.3.3.3.5.",
"5.5.3.z 8 , 3.3.2.2.3.3.3.3.5.3.5.=.L n n n P q.5.3.3.3.3.5.5.o.; 8 i.i.2.<.^ M n J { 3.3.3.3.3.3.5.3.3.3.5.5.2.2.2.1.3.3.5.5.5.",
"5.5.3.z 9 > 1.3.2.2.2.3.3.3.5.2.2./ n n n L { 3.5.3.3.3.5.5.5.@., 8 5.y.2.3.2./ M n J ` 3.5.5.3.5.5.3.3.2.3.2.2.2.5.2.3.3.5.5.5.",
"6.5.3.z 9 ; ,.5.3.3.3.3.3.3.3.,.<./ n n J { 3.3.3.3.3.5.5.y.t.:.8 9 5.y.3.3.3.2./ M n S w.5.5.5.5.5.3.3.2.2.2.2.2.5.3.3.3.5.5.7.",
";.O.X.f 9 = o.O.O.o...X.z l f s h A n V ( O.O.X.X.X.X.o.o.o...z 8 9 2.,.:.:.:.O.:.R J M ( O.;.:.,.,.,.:.:.:.:.:.:.O.O.,.,.,.,.,.",
"e q 9 e , $ 9 9 > ; ; ; = = $ # & O @ - , , , , ; ; ; ; = = = , = ; s i q e q 9 i r 6 2 : , 8 e p s s p p i e i i e , , 9 9 9 9 ",
"> = $ $ # # $ = ; > > ; $ # # $ > 8 8 > * X X $ = = # # # # # # $ * * * = ; = $ $ * = , 9 9 8 > > = * * * * = = $ $ # # = = = = ",
"5.,.X.f s f X.,.2.5.3.3.,.;.:.1.2.2.1.,.X.= 8 z o.:.:.:.:.:.,.1.2.2.1.2.2.3.2.O.s X.1.5.5.5.3.2.:.o.z d l ..o.s $ # 8 z O.O.;.:.",
"m.B.B.B.m.m.m.m.m.m.z.h.h.h.k.h.d.d.5.3.f $ i :.h.f.f.z.z.z.m.m.z.k.h.h.h.h.z.p.h.V.V.m.h.d.i.p.f.j.j.d.j.j.2.s = = o.d.h.d.f.h.",
"5.d.d.f.h.h.d.i.5.3.2.2.2.2.2.2.2.2.3.1.p # i 1.p.e.3.5.3.5.5.5.5.5.5.5.3.3.2.:.2.i.i.5.5.3.2.2.2.3.5.5.3.3.3.l = > :.h.6.5.5.5.",
"5.5.3.3.3.3.3.3.2.2.2.2.2.2.2.3.3.3.3.1.i # p :.2.2.3.3.3.5.5.5.5.5.5.5.3.2.2.<.:.2.2.3.3.2.2.2.2.2.2.2.2.2.3.O.; $ ;.h.5.5.5.5.",
"5.5.3.3.3.3.3.3.2.1.1.1.2.2.2.3.3.3.3.1.i # s :.2.2.3.y.y.5.5.5.6.6.5.5.3.2.2.2.@.2.3.3.2.2.2.2.2.2.2.2.2.3.3.:.= X X.b.6.5.5.5.",
"5.3.3.3.5.5.3.2.2.1.1.2.2.3.3.3.3.3.3.1.i # d 1.2.2.5.p.i.5.i.5.d.d.p.5.3.2.3.2.:.3.3.2.3.3.e.2.2.2.3.3.3.3.3.X.$ . d z.d.3.5.5.",
"3.3.5.5.5.3.3.2.1.1.1.2.2.2.2.3.3.3.3.,.e # d 2.2.3.y.p.p.i.p.p.d.d.p.5.3.3.3.:.1.3.3.3.3.y.e.2.2.2.3.3.3.3.3.x #   i z.h.3.3.5.",
"3.3.3.3.3.3.2.2.2.2.2.2.2.3.2.2.2.2.2.,.9 # f 1.2.3.y.y.i.p.i.p.d.d.p.5.3.3.2.O.2.3.3.3.3.3.3.2.2.2.3.3.3.3.3.z #   i b.f.3.5.5.",
"3.3.3.2.2.2.3.3.3.3.3.3.3.3.2.2.1.1.1.:.q # f 1.2.2.3.3.i.i.i.i.i.i.i.i.5.3.3.;.1.3.3.3.3.3.2.2.2.3.3.3.3.3.3.X.# . l b.i.3.5.5.",
"3.3.2.2.1.1.2.3.3.3.3.3.3.2.2.2.1.1.2.:.e # l 1.2.2.2.5.p.p.p.i.5.i.i.i.5.3.3.1.:.3.3.5.i.5.3.3.3.3.3.3.2.2.3.X.$ X o.k.3.3.3.3.",
"2.2.2.2.2.2.2.3.3.3.3.3.2.2.2.2.2.2.2.,.e # z 1.<.2.3.y.p.p.i.5.5.y.5.5.5.3.3.3.;.,.3.5.i.5.5.3.3.3.3.3.2.2.3.o.* # :.d.2.2.2.2.",
"2.3.2.2.3.2.2.3.3.3.3.2.2.2.2.2.3.3.2.1.i # l ,.2.2.5.p.p.i.5.3.3.3.3.3.3.3.3.3.:.;.3.3.5.5.5.3.3.3.3.3.2.2.3.o.* * ,.5.2.2.2.2.",
"3.3.2.2.3.2.2.3.3.3.3.2.2.2.2.3.3.3.2.1.a # d ,.2.2.3.5.5.5.5.3.3.3.3.3.3.3.3.3.3.1.3.3.3.3.3.3.3.3.3.2.3.3.2.o.* * 1.5.2.2.2.2.",
"2.2.2.2.3.3.3.3.3.3.3.2.2.2.2.2.3.3.3.1.s # a ,.3.3.3.3.5.3.3.3.3.3.3.3.3.3.3.3.3.1.3.3.3.3.3.3.3.3.3.3.3.3.2.O.* * ,.5.2.2.3.2.",
"f z x z z z X.X.o.:.,.O.o.o.:.O.O.O.O.X.e # e X.X.X.X.X.X.z l l z o.o...x z z l f i d d l X.z z f f l z z x z i * * z z x ..z j ",
"= ; ; ; ; ; , , 8 e i q q e i 9 8 8 8 9 > # = , ; = * * * # # # # # # & # # # # * # # # # # # # # # # # # * * # # # * # # * = = "
};
