/* XPM */
static char *c30c6f516f6d42bfe9c59d257c54a8596IpZlDYOv8KsPkRm[] = {
/* columns rows colors chars-per-pixel */
"64 64 31 1 ",
"  c #B36D22",
". c #B46D20",
"X c #B26D24",
"o c #B6732B",
"O c #B6732C",
"+ c #BB762F",
"@ c #B77631",
"# c #B87732",
"$ c #B77835",
"% c #BE7E3B",
"& c #F7A446",
"* c #FAA341",
"= c #FAA442",
"- c #F8A445",
"; c #F6A448",
": c #F1A652",
"> c #F4A750",
", c #F6A851",
"< c #D49C61",
"1 c #DEAC77",
"2 c #F5AF61",
"3 c #F6B064",
"4 c #F9B66C",
"5 c #E7B47F",
"6 c #FFCD93",
"7 c #FBCC9B",
"8 c #FFCE98",
"9 c #FFD5A2",
"0 c #FFD4A5",
"q c #FFD7AB",
"w c #FED7AE",
/* pixels */
"*****9w...............w***************ww..............ow*******=",
"*****9w...............w***************ww..............ow*******=",
"wwwwwwwwwwwwwwwwwwwwwwwwwwwwwwwwwwwwwwwwwwwwwwwwwwwwwwwwwwwwwwww",
"wwwwwwwwwwwwwwwwwwwwwwwwwwwwwwwwwwwwwwwwwwwwwwwwwwwwwwwwwwwwwwww",
"***************ww..............ww***************w#..............",
"***************ww..............ww***************w@..............",
"***************ww..............ww***************w@..............",
"***************ww..............ww***************w@..............",
"***************ww..............ww***************w7..............",
"wwwwwwwwwwwwwwwwwwwwwwwwwwwwwwwwwwwwwwwwwwwwwwwwwwwwwwwwwwwwwwww",
"XXXXXww;&&&&&&&&&&&&&6wqXXXXXXXXXXXXXXww&&&&&&&&&&&&&&ww<XXXXXXX",
".....0w***************w...............ww**************;w........",
".....0w***************w...............ww**************;w........",
".....0w***************w...............ww**************;w........",
".....0w***************w...............ww**************;w........",
"wwwwwwwwwwwwwwwwwwwwwwwwwwwwwwwwwwwwwwwwwwwwwwwwwwwwwwwwwwwwwwww",
"wwwwwwwwwwwwwwwwwwwwwwwwwwwwwwwwwwwwwwwwwwwwwwwwwwwwwwwwwwwwwwww",
"...............wq**************ww...............w,*************=",
"...............wq**************ww...............w,*************=",
"...............wq**************ww...............w,*************=",
"...............wq**************ww...............w,*************=",
"...............ww**************ww...............w0*************=",
"wwwwwwwwwwwwwwwwwwwwwwwwwwwwwwwwwwwwwwwwwwwwwwwwwwwwwwwwwwwwwwww",
"*****ww..............1wq**************ww..............ww3******=",
"*****9w...............w***************ww..............ow*******=",
"*****9w...............w***************ww..............ow*******=",
"*****9w...............w***************ww..............ow*******=",
"*****9w...............w***************ww..............ow*******=",
"wwwwwwwwwwwwwwwwwwwwwwwwwwwwwwwwwwwwwwwwwwwwwwwwwwwwwwwwwwwwwwww",
"wwwwwwwwwwwwwwwwwwwwwwwwwwwwwwwwwwwwwwwwwwwwwwwwwwwwwwwwwwwwwwww",
"***************ww..............ww***************w@..............",
"***************ww..............ww***************w@..............",
"***************ww..............ww***************w@..............",
"***************ww..............ww***************w@..............",
"-**************ww..............ww**************;wq..............",
"wwwwwwwwwwwwwwwwwwwwwwwwwwwwwwwwwwwwwwwwwwwwwwwwwwwwwwwwwwwwwwww",
".....ww**************4w0..............ww**************qw$.......",
".....0w***************w...............ww**************;w........",
".....0w***************w...............ww**************;w........",
".....0w***************w...............ww**************;w........",
".....0w***************w...............ww**************;w........",
"wwwwwwwwwwwwwwwwwwwwwwwwwwwwwwwwwwwwwwwwwwwwwwwwwwwwwwwwwwwwwwww",
"wwwwwwwwwwwwwwwwwwwwwwwwwwwwwwwwwwwwwwwwwwwwwwwwwwwwwwwwwwwwwwww",
"...............wq**************ww...............w,*************=",
"...............wq**************ww...............w,*************=",
"...............wq**************ww...............w,*************=",
"...............wq**************ww...............w,*************=",
" ..............ww**************ww..............+wq*************=",
"wwwwwwwwwwwwwwwwwwwwwwwwwwwwwwwwwwwwwwwwwwwwwwwwwwwwwwwwwwwwwwww",
"*****ww..............%w8**************ww..............ww&******=",
"*****9w...............w***************ww..............ow*******=",
"*****9w...............w***************ww..............ow*******=",
"*****9w...............w***************ww..............ow*******=",
"*****9w...............w***************ww..............Ow*******=",
"wwwwwwwwwwwwwwwwwwwwwwwwwwwwwwwwwwwwwwwwwwwwwwwwwwwwwwwwwwwwwwww",
"wwwwwwwwwwwwwwwwwwwwwwwwwwwwwwwwwwwwwwwwwwwwwwwwwwwwwwwwwwwwwwww",
"***************ww..............ww***************w@..............",
"***************ww..............ww***************w@..............",
"***************ww..............ww***************w@..............",
"***************ww..............ww***************w@..............",
":*************&ww..............ww-*************2ww..............",
"wwwwwwwwwwwwwwwwwwwwwwwwwwwwwwwwwwwwwwwwwwwwwwwwwwwwwwwwwwwwwwww",
".....ww**************>w5..............ww**************9wX.......",
".....0w***************w...............ww**************;w........"
};
