/* XPM */
static char *ea0e3968764b457bd694c8f6636f29e589isalBSRS4SqdxO[] = {
/* columns rows colors chars-per-pixel */
"64 64 161 2 ",
"   c #31373F",
".  c #313740",
"X  c #363B44",
"o  c #393E47",
"O  c #393F48",
"+  c #3C434D",
"@  c #3E4651",
"#  c #3F4852",
"$  c #435B44",
"%  c #404752",
"&  c #424B55",
"*  c #444E59",
"=  c #435253",
"-  c #475955",
";  c #47515B",
":  c #4A535E",
">  c #4B6D47",
",  c #496649",
"<  c #4D6A51",
"1  c #4F655A",
"2  c #506558",
"3  c #536A5E",
"4  c #4C5661",
"5  c #4E5964",
"6  c #4E5C69",
"7  c #515C66",
"8  c #535E69",
"9  c #506165",
"0  c #55626C",
"q  c #59656E",
"w  c #596B69",
"e  c #5C7669",
"r  c #566470",
"t  c #5A6671",
"y  c #5D6A74",
"u  c #5E6D79",
"i  c #5F707B",
"p  c #616D76",
"a  c #616F7A",
"s  c #607973",
"d  c #64727D",
"f  c #68767F",
"g  c #5D8A53",
"h  c #609C4A",
"j  c #609355",
"k  c #63905E",
"l  c #6FBF4C",
"z  c #68A456",
"x  c #68AB50",
"c  c #6CAA5B",
"v  c #72BA59",
"b  c #64826E",
"n  c #688E6E",
"m  c #6E9D6D",
"M  c #688776",
"N  c #6F8D7A",
"B  c #729D74",
"V  c #71A26F",
"C  c #76B961",
"Z  c #75B16A",
"A  c #76A870",
"S  c #7DAA7F",
"D  c #7DB177",
"F  c #7FB47B",
"G  c #7EB879",
"H  c #74C94F",
"J  c #7AD94E",
"K  c #78C55A",
"L  c #78C95A",
"P  c #7CD953",
"I  c #7CD15A",
"U  c #7EE24D",
"Y  c #7FC76A",
"T  c #7FCB68",
"R  c #7FC072",
"E  c #80BD75",
"W  c #80B37E",
"Q  c #81D75E",
"!  c #84DD5E",
"~  c #82EC4E",
"^  c #85F54D",
"/  c #86F84C",
"(  c #83E556",
")  c #84ED53",
"_  c #83E25A",
"`  c #86E859",
"'  c #84F050",
"]  c #80CB67",
"[  c #81C66E",
"{  c #82CB6B",
"}  c #82D465",
"|  c #82D961",
" . c #88D86D",
".. c #81C273",
"X. c #84CA70",
"o. c #86C47A",
"O. c #667581",
"+. c #697782",
"@. c #677984",
"#. c #6B7B85",
"$. c #6D7E89",
"%. c #707E86",
"&. c #707F89",
"*. c #6E8284",
"=. c #6E808B",
"-. c #72838D",
";. c #78868F",
":. c #75898B",
">. c #788E8F",
",. c #7A948D",
"<. c #7E9D8D",
"1. c #758691",
"2. c #788791",
"3. c #778994",
"4. c #7B8C96",
"5. c #7C8E99",
"6. c #7D9295",
"7. c #7E9B93",
"8. c #7D919C",
"9. c #7DA384",
"0. c #7EAE80",
"q. c #7EA28A",
"w. c #7F94A0",
"e. c #809E8F",
"r. c #808F97",
"t. c #808F98",
"y. c #819297",
"u. c #819A93",
"i. c #80919A",
"p. c #80929C",
"a. c #81939C",
"s. c #82949F",
"d. c #849A98",
"f. c #82AB84",
"g. c #81A38B",
"h. c #83AE88",
"j. c #81B285",
"k. c #86BD80",
"l. c #87B089",
"z. c #8DBB94",
"x. c #8396A1",
"c. c #8397A2",
"v. c #8597A1",
"b. c #8699A4",
"n. c #879CA7",
"m. c #899BA6",
"M. c #8A9CA7",
"N. c #879DA9",
"B. c #899EA9",
"V. c #8D9FAA",
"C. c #8EA9A7",
"Z. c #8EA1AB",
"A. c #8DA1AD",
"S. c #8EA2AD",
"D. c #90A4AF",
"F. c #8DA3B0",
"G. c #8FA5B1",
"H. c #90A6B1",
"J. c #93A9B5",
"K. c #95ADB9",
"L. c #88C184",
/* pixels */
"-.4.4.4.5.8.i.p.v.m.m.M.M.b.b.x.5.b.b.b.b.x.x.8.5.5.5.=.4 : p #.-.;.1.3.3.4.5.8.8.8.5.4.4.3.3.5.8.8.8.5.4.5.8.s.s.p.5.5.p.p.1.d ",
"M.M.b.i.p.p.s.s.s.v.m.B.S.H.H.v.N.N.b.b.x.x.x.x.x.b.v.=.6 y 8.v.8.p.p.8.x.n.S.F.F.F.G.G.H.H.G.H.G.F.S.S.S.S.D.D.D.Z.Z.V.M.v.1.a ",
"Z.M.i.4.4.4.4.4.4.4.4.4.5.5.5.-.4.4.5.5.5.5.5.8.8.8.8.#.8 d m.8.4.4.4.5.5.5.8.8.8.8.8.8.s.s.x.x.s.8.8.8.i.i.r.r.t.t.t.t.t.i.-.r ",
"D.m.5.4.4.4.4.4.4.4.4.4.4.4.5.-.4.5.5.5.5.5.5.5.8.8.8.=.0 O.B.8.4.4.5.5.8.8.8.8.8.5.5.5.5.5.5.5.5.5.4.4.4.4.4.4.4.r.4.5.8.8.1.0 ",
"H.V.5.4.4.4.4.4.4.4.4.4.4.4.5.-.5.8.8.8.8.5.5.5.5.5.s.-.8 d Z.s.4.5.5.8.8.8.8.8.8.8.8.5.5.5.5.5.5.5.5.4.4.4.r.4.t.t.8.8.8.8.+.6 ",
"J.S.5.4.4.4.4.4.4.4.4.4.4.5.5.1.5.8.8.8.8.8.5.5.5.5.5.@.5 i Z.p.4.4.5.5.8.8.8.8.8.8.8.8.8.5.5.5.5.5.4.4.5.5.t.t.5.8.8.8.8.4.O.6 ",
"H.D.i.5.4.4.4.4.4.4.4.4.4.5.8.3.3.8.8.8.8.8.5.5.5.8.5.@.5 u B.8.4.4.5.5.8.8.8.8.8.8.8.8.8.5.5.5.5.5.4.5.t.t.r.t.5.8.8.5.$.1.u 6 ",
"V.S.8.4.4.4.4.4.4.4.4.4.5.5.8.8.1.5.8.8.8.5.5.5.5.5.8.$.8 t n.p.4.4.4.5.5.8.8.8.8.8.8.8.5.5.5.5.5.5.5.i.i.i.t.4.5.5.4.-.-.$.r 5 ",
"D.Z.4.4.4.4.4.4.4.5.4.5.5.8.8.s.s.4.1.5.8.5.8.8.5.5.8.1.r 0 b.p.4.4.4.5.5.5.8.8.8.8.8.8.5.5.5.5.5.4.8.8.i.i.4.4.4.2.-.4.8.5.@.r ",
"H.m.4.4.4.4.4.4.5.5.5.5.5.5.5.8.p.i.2.#.5.5.5.8.5.5.8.4.y 0 x.x.4.4.4.4.5.5.5.5.5.5.5.5.5.5.5.5.4.4.8.i.i.4.;.2.2.4.5.5.8.5.O.0 ",
"S.x.4.4.4.4.4.5.5.5.5.8.8.5.8.i.i.i.8.2.3.5.5.5.5.5.5.4.u t v.v.4.4.4.4.4.4.5.5.5.5.5.5.5.5.5.5.4.4.8.i.4.;.4.i.i.5.5.5.8.5.a 6 ",
"M.8.4.4.4.4.5.5.5.5.8.8.8.8.i.i.i.8.5.4.;.5.5.5.5.5.8.4.t u b.x.5.4.4.4.4.4.4.4.5.5.5.5.5.5.5.5.5.5.2.2.2.i.i.i.i.8.8.8.8.8.O.6 ",
"b.8.5.5.5.5.5.5.8.8.8.8.8.8.i.8.8.5.5.5.-.4.4.5.5.5.i.-.8 d b.s.5.4.4.4.4.4.4.5.5.4.4.4.4.5.5.5.i.4.2.i.i.p.s.s.p.p.8.8.8.8.$.6 ",
"B.s.4.1.1.1.4.4.4.4.4.5.5.2.2.4.2.2.2.2.#.%.;.;.2.4.4.$.8 d b.5.3.1.;.1.2.2.;.-.-.1.1.3.3.1.1.;.-.-.4.5.5.4.-.-.-.3.5.5.3.+.y 6 ",
"v.1.d y t t y p p y u f f y t p p p p y 8 y y y p f #.#.0 r 3.d q 0 8 8 q p q 8 8 t d d p 8 7 4 7 t d f f t 7 4 5 8 u d 0 4 4 ; ",
"O.y 6 4 : ; ; ; : ; : 5 5 ; * : 4 4 5 : : 5 5 5 4 6 0 0 ; ; 8 5 : : : : 4 4 * * ; 4 5 8 4 * @ % : 4 4 5 5 : ; : ; ; 4 : ; * * * ",
"1.1.-.;.-.-.$.#.$.@.d p u u t r 8 * * q -.-.#.@.$.-.4.1.@.d f $.-.;.$.#.@.@.$.$.=.*.M s 9 = * p 1.$.d r O.#.=.=.$.$.1.1.-.$.@.$.",
"H.H.D.D.S.S.S.S.S.D.D.S.S.V.B.B.p.b b v.H.B.C.J.J.H.D.S.V.B.S.H.H.D.Z.V.B.Z.V.C.z. .) _ I j 8 x.J.K.J.S.S.J.J.J.J.H.J.J.J.J.H.H.",
"v.b.m.b.x.x.p.p.p.p.v.v.v.v.v.v.:.C (  .o.e.u.d.s.i.i.i.8.8.s.s.i.5.5.5.5.6.g.X.) / / / / J e b.b.x.b.B.b.S.B.b.x.s.s.x.s.s.s.s.",
"s.v.x.x.x.8.8.5.5.4.4.8.8.8.i.i.*.K / / / ! f.y.i.i.y.4.4.4.4.5.4.4.5.5.4.,.Q / / / / / / ~ m b.x.5.5.5.4.5.8.5.5.5.5.5.5.8.i.p.",
"v.s.s.x.x.8.8.8.5.5.i.i.i.i.p.8.*.L / / / / ! f.i.y.r.5.8.5.5.5.4.4.5.4.4.,.( / / / / / / H b b.8.5.5.5.1.-.5.5.5.5.5.5.i.i.s.v.",
"s.s.s.s.s.8.8.5.5.i.i.i.i.p.8.8.$.c / / / / / ( f.y.t.8.8.8.5.5.5.5.4.4.6.{ / / / / / / L 3 d m.5.5.5.5.1.2.4.5.4.4.4.t.i.p.v.v.",
"s.s.p.i.p.8.8.5.i.i.i.p.s.s.8.8.#.e J / / / / / } u.i.8.8.8.5.5.r.t.4.4.E ^ / / / / ^ T M ; p V.p.5.5.3.1.5.5.5.4.4.4.4.8.s.v.s.",
"p.p.8.i.i.8.5.5.i.i.i.p.s.s.8.8.$.0 k ) / / / / ) W 6.8.8.i.i.i.r.r.5.W ) / / / / ) Y ,.O.; 8 S.G.5.5.3.4.5.5.5.4.4.4.4.5.p.p.s.",
"p.8.8.8.8.8.5.5.8.y.i.i.p.p.s.s.#.7 q k.` / / / / | q.8.p.i.i.i.r.5.9.( / / / ) ] 9.>.4.@.: 8 S.K.8.4.5.5.5.5.4.4.4.4.4.4.5.5.5.",
"5.5.5.5.5.8.8.5.r.r.8.i.p.8.8.s.#.4 p M.l.( / / / / } u.p.s.p.i.t.q._ / / / ! S ,.2.4.4.$.5 0 S.G.5.4.4.4.5.5.4.4.4.4.4.5.5.5.5.",
"5.5.5.5.5.5.8.5.5.5.8.8.8.8.p.s.#.: y m.s.f.E ( / / / { u.6.r.4.q.! / / / ! <.4.4.4.3.4.-.8 0 B.x.4.4.4.5.5.4.4.4.4.4.4.4.5.5.5.",
"5.5.5.5.5.5.5.5.5.4.8.8.8.p.s.s.#.5 y V.v.8.5.0.) / / / [ y.5.9._ / / / | <.4.4.4.4.3.4.#.4 t b.5.4.4.4.4.4.4.4.4.4.4.4.5.5.5.5.",
"8.8.8.5.5.5.4.5.5.5.8.8.8.s.s.s.#.8 y B.n.s.p.p.j.) / / ^ ..h.( / / / ! e.5.4.4.4.4.4.2.d ; d v.5.5.5.4.4.4.4.5.4.4.4.4.5.5.8.5.",
"#.@.#.#.+.#.$.-.-.$.$.$.$.&.&.#.p 5 y v.8.1.;.-.-.A ~ / / ^ ) / / / I N &.#.#.$.$.@.@.O.y ; u 3.-.$.$.=.-.-.$.#.@.#.$.=.-.$.#.#.",
"4 ; : : : : 4 7 8 7 5 5 5 4 4 4 : * 5 d t 8 7 5 4 : g U / / / / / l 2 4 : : 5 5 5 4 4 4 4 & 4 t 0 8 5 5 5 0 8 5 8 8 7 8 8 5 5 7 ",
"& @ & & + + @ * * & + + + & & & * * * * & + @ @ + + @ h / / / / U $ % : ; & @ & & * & & & * * * * & # @ @ @ & # * & @ @ @ & & & ",
"$.$.$.+.4 @ d @.#.@.#.$.-.-.-.%.-.-.-.-.;.;.-.-.-.-.B U / / / / ^ z #.1.4.4.1.1.1.3.1.1.1.3.4.4.3.1.1.=.@.@.$.$.$.O.f O.#.-.-.$.",
"m.v.x.3.0 ; -.8.s.x.x.v.s.i.i.4.i.i.i.s.v.b.n.B.B.L.) / / ^ ^ / / ) W H.K.S.S.S.B.B.B.B.m.b.b.n.B.B.B.B.B.B.B.B.x.x.x.v.v.b.B.S.",
"8.5.5.-.8 ; ;.8.5.5.5.5.t.4.5.4.5.5.5.5.5.8.8.8.j.) / / / ..E ' / / ) z.x.5.5.5.5.4.4.5.5.5.5.5.5.5.5.5.5.8.8.8.3.2.4.4.4.4.5.p.",
"5.5.5.$.8 : ;.4.4.5.5.5.5.8.4.4.8.5.5.5.5.5.8.f.) / / ^ [ 6.4.Z ^ / / _ 7.5.5.5.5.4.4.5.5.5.5.5.5.5.4.5.5.5.5.5.2.;.4.4.4.4.4.5.",
"5.5.5.#.5 5 ;.4.4.5.5.4.5.5.4.4.8.8.8.5.5.p.f.) / / / ] 6.5.4.d c ^ / / } 6.5.5.5.4.4.5.5.5.5.5.5.5.5.5.4.5.5.5.4.;.4.4.4.4.4.5.",
"5.5.5.@.5 4 1.4.5.5.4.5.8.i.i.5.8.8.8.8.p.g.( / / / } <.5.5.4.u : x ^ / / ..5.5.5.5.5.5.5.5.5.5.5.5.5.4.5.5.5.4.4.;.2.4.4.5.5.5.",
"5.8.8.@.4 4 4.5.5.4.4.5.8.8.8.8.5.8.8.8.p.] / / / } 7.5.5.5.5.u & 0 ..' / ' ..6.5.5.5.5.5.5.5.5.5.5.5.5.8.8.5.4.4.;.4.4.5.5.5.5.",
"8.8.8.O.: 4 5.5.5.4.5.5.8.8.8.5.5.8.5.6...^ / / _ <.5.5.5.8.5.u & 8 8.k.) / / [ 6.5.5.5.5.5.5.5.5.5.5.5.8.8.5.4.4.2.4.4.5.5.5.5.",
"8.8.5.d : 4 5.8.4.4.5.5.8.8.8.4.8.8.6.[ ^ / / ) W 6.8.5.5.5.5.a & 8 5.p.F ) / / E 4.5.5.5.5.5.5.5.5.5.5.8.5.5.4.4.2.4.5.5.5.5.8.",
"8.8.5.p : 4 5.5.4.4.5.5.5.8.8.5.8.6...^ / / ^ ..6.5.5.5.5.5.5.d & 8 s.p.4.D ) / ' R 6.5.5.5.5.5.5.5.5.5.5.5.4.4.4.2.4.5.5.5.8.8.",
"8.8.5.p : 4 5.5.4.4.5.5.5.5.8.5.8.W ) / / / } 7.8.5.5.5.5.8.i.+.* 5 s.i.4.4.D ) / ' G 6.5.5.5.5.5.8.5.5.5.8.5.4.4.5.1.5.5.8.8.8.",
"8.8.4.p 4 : 4.5.4.4.4.5.5.5.8.4.6.{ / / / | q.5.8.5.5.8.8.i.i.#.: 8 p.8.4.5.4.G ) / ^ E 5.8.8.8.8.8.5.5.4.4.4.4.4.8.5.5.5.8.8.8.",
"8.8.3.a 5 ; 1.5.5.4.4.4.3.3.3.-.;.] / / _ q.5.5.5.5.5.5.5.i.4.#.: 8 i.8.5.5.5.5.E ' / _ 7.5.8.8.8.8.5.4.4.4.4.4.4.5.5.8.5.8.8.w.",
"@.O.d y 5 & O.+.f d p y t t 0 7 w P U v n O.O.d u a p d d p p y : 8 1.$.#.@.@.#.=.m P ~ V O.@.@.$.$.#.#.#.#.#.#.@.O.f @.@.@.$.$.",
"4 4 : 4 * + : ; & @ & @ @ + + + + > , & & & & & & @ & @ + + + & + & 5 : : : : : 5 6 1 < - * * : 7 8 8 8 8 7 4 7 8 5 * & : : : * ",
"6 ; * @ @ @ * 4 5 0 8 5 ; * ; 4 0 0 0 8 ; X + ; 5 5 ; & & & * * : : : : 5 5 : * @ * : 0 t y q 8 4 * & @ & * : ; + + + & ; ; ; ; ",
"b.8.3.$.@.=.4.8.x.b.x.x.8.5.5.8.8.8.5.3.@.& 8 @.;.4.5.5.i.p.s.x.x.x.x.x.x.x.x.4.@.5.x.b.b.x.s.p.5.2.-.#.-.1.-.t @ + q $.3.4.5.8.",
"Z.S.G.G.G.G.S.S.B.B.b.x.x.v.v.x.p.8.8.3.t + q 3.M.v.v.m.m.m.B.B.b.x.x.x.x.x.m.4.M.H.S.B.v.p.8.p.v.v.v.v.b.b.4.0 @ ; -.b.x.x.x.b.",
"8.8.8.w.x.s.8.5.5.4.4.2.2.4.4.4.4.4.5.3.0 + t 2.i.4.4.4.5.5.8.8.8.8.8.5.5.4.4.;.2.5.5.5.5.4.4.4.4.4.4.4.5.5.4.p & : 1.b.8.8.8.8.",
"8.8.5.5.5.5.5.5.4.4.4.4.4.4.4.5.5.5.5.1.8 + t -.4.4.5.5.5.8.8.8.8.8.8.8.5.4.4.2.-.4.4.5.4.4.4.4.4.4.4.4.4.5.5.$.* @ -.N.8.8.8.8.",
"8.8.5.5.5.8.5.5.4.3.3.3.4.4.5.5.5.5.5.1.8 + y 3.4.4.8.i.i.8.8.8.s.s.8.8.5.4.4.4.-.4.5.4.4.4.4.4.4.4.4.4.4.5.5.$.@ X $.Z.8.8.8.8.",
"8.5.5.8.8.8.5.4.4.3.3.4.4.4.5.5.5.5.5.1.8 + u 4.4.4.i.s.p.8.p.p.x.x.s.p.5.4.5.1.-.5.5.4.5.i.t.4.4.4.5.5.5.5.5.O.+ X u Z.x.5.8.8.",
"5.5.8.8.5.5.5.4.3.3.4.4.4.4.4.4.4.4.4.-.5 + p 4.4.5.i.s.s.p.s.v.v.v.s.8.5.5.5.-.3.5.5.5.8.i.5.4.4.4.5.5.5.5.5.p O   t S.x.5.5.8.",
"5.5.5.5.5.4.4.4.4.4.4.4.5.5.4.4.3.3.4.-.4 + d 3.4.5.i.8.p.p.p.s.s.s.s.8.8.5.3.$.5.5.5.5.5.5.5.4.4.4.5.5.5.5.4.p O . u S.x.5.8.8.",
"5.5.5.4.3.4.5.5.5.5.5.5.5.5.4.4.3.3.4.=.5 + d 3.4.4.4.5.p.p.p.p.p.p.p.p.8.5.4.=.3.5.5.8.5.5.4.4.4.5.5.5.5.5.4.O.+ X #.B.8.5.8.8.",
"5.5.4.4.3.3.4.5.5.5.5.5.5.4.4.4.3.3.4.=.5 + d 3.4.4.4.i.s.s.s.p.8.p.p.p.8.5.5.3.-.5.5.p.p.8.5.5.5.5.5.5.3.4.4.O.+ + -.b.5.5.5.5.",
"4.5.4.4.4.4.4.5.5.5.5.4.4.4.4.4.4.4.4.-.5 + O.3.4.4.5.p.s.s.8.8.8.8.8.8.8.5.5.5.$.1.5.8.p.8.8.5.5.5.5.5.4.4.5.#.+ & 3.p.4.4.4.4.",
"4.5.4.4.5.4.4.5.5.5.5.4.4.4.4.4.5.5.4.3.8 + d 1.4.4.8.p.s.8.8.5.5.5.5.5.5.5.5.5.-.-.5.5.8.8.5.5.5.5.5.4.4.4.4.#.+ * 4.8.4.4.4.4.",
"5.5.5.4.5.4.4.5.5.5.5.4.4.4.4.5.5.5.4.3.0 + u 1.4.5.5.8.8.8.5.5.5.5.5.5.5.5.5.5.5.3.5.5.5.5.5.5.5.5.5.4.4.4.4.#.+ * 2.5.4.4.5.5.",
"3.2.4.4.4.4.4.4.5.5.5.4.4.4.4.4.5.5.4.3.0 + y 1.4.5.5.5.5.5.4.4.4.5.4.5.5.5.5.5.3.-.3.3.5.5.4.4.4.4.4.5.5.5.4.+.+ * 1.4.4.4.4.2.",
"0 y y y t t y p d #.$.f d f #.O.f O.d u 5 + 8 u y y t y y t 0 0 t y y y t q q 0 8 4 8 8 0 t t 0 8 0 0 q q t q 4 @ * y q t y t 0 ",
"@ @ @ @ @ & * * * 4 4 : : 5 5 : * * * ; & + @ & & & + + + o O o o o o O O o o O + X X X X o O O O o O + + + + + O O + o O + & @ "
};
