/* XPM */
static char *d143777b2cc2429a89a1b9839a9ef51b04jGsGfP1gKIQ6c1[] = {
/* columns rows colors chars-per-pixel */
"64 64 28 1 ",
"  c #AF6E28",
". c #AC6F2C",
"X c #B26D23",
"o c #B46D20",
"O c #B16E27",
"+ c #B3732F",
"@ c #AD7131",
"# c #A87137",
"$ c #B27432",
"% c #B77835",
"& c #BB7D3E",
"* c #BC7D3D",
"= c #B37F48",
"- c #BE8850",
"; c #B88957",
": c #BD8F60",
"> c #C09363",
", c #CAA47A",
"< c #E6C5A3",
"1 c #E7C8A9",
"2 c #E8CFB7",
"3 c #F0E3D7",
"4 c #FCEFE1",
"5 c #FFF7ED",
"6 c #FFFBF3",
"7 c #FFFBF8",
"8 c #FFFEFA",
"9 c white",
/* pixels */
"ooooo99oooooooooooooo*9ooooooooooooooo99oooooooooooooo99oooooooo",
"ooooo99oooooooooooooo*9ooooooooooooooo99oooooooooooooo99oooooooo",
"9999999999999999999999999999999999999999999999999999999999999999",
"9999999999999999999999999999999999999999999999999999999999999999",
"ooooooooooooooo9-oooooooooooooo99ooooooooooooooo9ooooooooooooooo",
"ooooooooooooooo9-oooooooooooooo99ooooooooooooooo9ooooooooooooooo",
"ooooooooooooooo9-oooooooooooooo99ooooooooooooooo9ooooooooooooooo",
"ooooooooooooooo9-oooooooooooooo99ooooooooooooooo9ooooooooooooooo",
"ooooooooooooooX95oooooooooooooo99oooooooooooooo29@oooooooooooooo",
"9999999999999999999999999999999999999999999999999999999999999999",
"     99              99<OOOOOOOOOOOOO.99              99#       ",
"ooooo99oooooooooooooo*9ooooooooooooooo99oooooooooooooo99oooooooo",
"ooooo99oooooooooooooo*9ooooooooooooooo99oooooooooooooo99oooooooo",
"ooooo99oooooooooooooo*9ooooooooooooooo99oooooooooooooo99oooooooo",
"ooooo99oooooooooooooo*9ooooooooooooooo99oooooooooooooo99oooooooo",
"9999999999999999999999999999999999999999999999999999999999999999",
"9999999999999999999999999999999999999999999999999999999999999999",
"ooooooooooooooo9-oooooooooooooo99ooooooooooooooo9ooooooooooooooo",
"ooooooooooooooo9-oooooooooooooo99ooooooooooooooo9ooooooooooooooo",
"ooooooooooooooo9-oooooooooooooo99ooooooooooooooo9ooooooooooooooo",
"ooooooooooooooo9-oooooooooooooo99ooooooooooooooo9ooooooooooooooo",
"ooooooooooooooo98oooooooooooooo99oooooooooooooo39$oooooooooooooo",
"9999999999999999999999999999999999999999999999999999999999999999",
"ooooo99oooooooooooooo99>oooooooooooooo99oooooooooooooo99oooooooo",
"ooooo99oooooooooooooo*9ooooooooooooooo99oooooooooooooo99oooooooo",
"ooooo99oooooooooooooo*9ooooooooooooooo99oooooooooooooo99oooooooo",
"ooooo99oooooooooooooo*9ooooooooooooooo99oooooooooooooo99oooooooo",
"ooooo99oooooooooooooo*9ooooooooooooooo99oooooooooooooo99oooooooo",
"9999999999999999999999999999999999999999999999999999999999999999",
"9999999999999999999999999999999999999999999999999999999999999999",
"ooooooooooooooo9-oooooooooooooo99ooooooooooooooo9ooooooooooooooo",
"ooooooooooooooo9-oooooooooooooo99ooooooooooooooo9ooooooooooooooo",
"ooooooooooooooo9-oooooooooooooo99ooooooooooooooo9ooooooooooooooo",
"ooooooooooooooo9-oooooooooooooo99ooooooooooooooo9ooooooooooooooo",
"oooooooooooooo@98oooooooooooooo99oooooooooooooo49;oooooooooooooo",
"9999999999999999999999999999999999999999999999999999999999999999",
"ooooo99oooooooooooooo99=oooooooooooooX99oooooooooooooo99Oooooooo",
"ooooo99oooooooooooooo*9ooooooooooooooo99oooooooooooooo99oooooooo",
"ooooo99oooooooooooooo*9ooooooooooooooo99oooooooooooooo99oooooooo",
"ooooo99oooooooooooooo*9ooooooooooooooo99oooooooooooooo99oooooooo",
"ooooo99oooooooooooooo*9ooooooooooooooo99oooooooooooooo99oooooooo",
"9999999999999999999999999999999999999999999999999999999999999999",
"9999999999999999999999999999999999999999999999999999999999999999",
"ooooooooooooooo9-oooooooooooooo99ooooooooooooooo9ooooooooooooooo",
"ooooooooooooooo9-oooooooooooooo99ooooooooooooooo9ooooooooooooooo",
"ooooooooooooooo9-oooooooooooooo99ooooooooooooooo9ooooooooooooooo",
"ooooooooooooooo9-oooooooooooooo99ooooooooooooooo9ooooooooooooooo",
"oooooooooooooo%99oooooooooooooo99oooooooooooooo79,oooooooooooooo",
"9999999999999999999999999999999999999999999999999999999999999999",
"ooooo99oooooooooooooo89+oooooooooooooo99oooooooooooooo99oooooooo",
"ooooo99oooooooooooooo*9ooooooooooooooo99oooooooooooooo99oooooooo",
"ooooo99oooooooooooooo*9ooooooooooooooo99oooooooooooooo99oooooooo",
"ooooo99oooooooooooooo*9ooooooooooooooo99oooooooooooooo99oooooooo",
"ooooo99oooooooooooooo&9ooooooooooooooo99oooooooooooooo99oooooooo",
"9999999999999999999999999999999999999999999999999999999999999999",
"9999999999999999999999999999999999999999999999999999999999999999",
"ooooooooooooooo9-oooooooooooooo99ooooooooooooooo9ooooooooooooooo",
"ooooooooooooooo9-oooooooooooooo99ooooooooooooooo9ooooooooooooooo",
"ooooooooooooooo9-oooooooooooooo99ooooooooooooooo9ooooooooooooooo",
"ooooooooooooooo9-oooooooooooooo99ooooooooooooooo9ooooooooooooooo",
"Oooooooooooooo:99oooooooooooooo99oooooooooooooo891oooooooooooooo",
"9999999999999999999999999999999999999999999999999999999999999999",
"ooooo99oooooooooooooo69 oooooooooooooo99oooooooooooooo99oooooooo",
"ooooo99oooooooooooooo*9ooooooooooooooo99oooooooooooooo99oooooooo"
};
