/* XPM */
static char *c8d1b677e91847d9fa872f153f201c34vYz43Co1mli2vsa0[] = {
/* columns rows colors chars-per-pixel */
"64 64 123 2 ",
"   c #30363F",
".  c #363C44",
"X  c #383D46",
"o  c #393F48",
"O  c #3C444D",
"+  c #3E4651",
"@  c #3F4852",
"#  c #464647",
"$  c #40464F",
"%  c #494A4C",
"&  c #57534F",
"*  c #404751",
"=  c #414A54",
"-  c #484F57",
";  c #454E59",
":  c #4D5054",
">  c #47515C",
",  c #4A535E",
"<  c #5F5B57",
"1  c #56585C",
"2  c #5C5C5C",
"3  c #625A54",
"4  c #67625E",
"5  c #6F665E",
"6  c #736456",
"7  c #7B6755",
"8  c #7C6856",
"9  c #726559",
"0  c #76695D",
"q  c #7C6B5B",
"w  c #4C5661",
"e  c #4E5964",
"r  c #4E5C69",
"t  c #515C66",
"y  c #5A5D60",
"u  c #525E69",
"i  c #55626C",
"p  c #59636D",
"a  c #576571",
"s  c #596671",
"d  c #5D6A75",
"f  c #5E6D79",
"g  c #616160",
"h  c #6B6966",
"j  c #646A6D",
"k  c #686B6C",
"l  c #716B64",
"z  c #7C6E61",
"x  c #7C7166",
"c  c #72706E",
"v  c #7D746B",
"b  c #606C76",
"n  c #696E71",
"m  c #616F7A",
"M  c #6D7275",
"N  c #63727D",
"B  c #69757C",
"V  c #727271",
"C  c #7B7772",
"Z  c #777877",
"A  c #7D7A76",
"S  c #73787A",
"D  c #7B7D7B",
"F  c #7D807E",
"G  c #81827F",
"H  c #667581",
"J  c #687781",
"K  c #677884",
"L  c #6B7B85",
"P  c #6D7E89",
"I  c #707F87",
"U  c #707F89",
"Y  c #6F808B",
"T  c #7D8384",
"R  c #72838D",
"E  c #7B868B",
"W  c #7D898E",
"Q  c #758691",
"!  c #798791",
"~  c #778994",
"^  c #7B8C96",
"/  c #7C8E99",
"(  c #7D919B",
")  c #7C919C",
"_  c #7E919D",
"`  c #7F949E",
"'  c #7F94A0",
"]  c #838685",
"[  c #838788",
"{  c #838B8C",
"}  c #818F96",
"|  c #808F98",
" . c #829097",
".. c #82919B",
"X. c #83929C",
"o. c #84939D",
"O. c #83959F",
"+. c #85959F",
"@. c #8E999D",
"#. c #8396A1",
"$. c #8397A3",
"%. c #8496A0",
"&. c #8799A3",
"*. c #8799A4",
"=. c #879CA6",
"-. c #889AA4",
";. c #889CA7",
":. c #8A9CA8",
">. c #899EA9",
",. c #8C9FAB",
"<. c #8AA0A9",
"1. c #8DA0AB",
"2. c #8AA0AD",
"3. c #8FA2AD",
"4. c #8EA4AF",
"5. c #91A3AE",
"6. c #90A4AE",
"7. c #8EA3B0",
"8. c #8EA4B1",
"9. c #90A5B1",
"0. c #92A7B3",
"q. c #93A9B5",
"w. c #96AEBB",
/* pixels */
"s J L L L L L L U R R ^ ^ R Q ^ R Q ~ ~ ~ Q R L H H H f ; @ w i s d d f f f f N N N N f d s d f H L H N m N H L L J N N L R L s ",
"#.*.&.X.O.%.&.&.-.;.1.3.6.9.9.;.:.3.2.:.*.*.*.#.*.=.*.~ u i Q X.X.X.#.#.*.:.3.8.8.8.3.3.4.7.7.8.8.7.3.3.3.3.5.6.6.5.3.1.,.-.^ H ",
"1.:.O.^ ^ ^ ^ ^ ^ ^ / / _ #.O.Q / / / / / / / _ _ _ _ P u d &.#.^ ^ ^ / / _ _ #.#.#.#.&.*.*.:.:.*.#.#.+.%.+.+.+.+.o.o.X.o...R d ",
"3.:./ ^ ^ ^ ^ ^ ^ ^ ^ ^ ^ ^ ^ R ^ / / / / / / ( _ _ _ R i N :._ ^ ^ / / / / _ _ / / / / / / / / / / ^ ^ ^ ^ ^ ^ ^ ^ ^ / / ( Q a ",
"9.,./ ^ ^ ^ ^ ^ ^ ^ ^ ^ ^ ^ / R ^ / / ( ( / / / / / _ Q i f :.#.^ / / ( _ _ _ _ _ _ ( / / / / / / / ^ ^ ^ ^ ^ ^ } } / ( _ _ P i ",
"9.3.( ^ ^ ^ ^ ^ ^ ^ ^ ^ ^ ^ / Q ~ _ _ _ _ / / / / / _ P r d <.#.^ ^ / / _ _ _ _ _ _ ( ( ( / / / / / ^ ^ ^ / | | / / ( _ _ ^ H u ",
"9.5...^ ^ ^ ^ ^ ^ ^ ^ ^ ^ / ( ~ ~ ` _ _ _ _ / / / ( / L e d :.O.^ ^ / / ( _ _ _ _ _ _ _ ( / / / / / ^ / / | | | / ( _ _ ~ ~ H r ",
":.5...^ ^ ^ ^ ^ ^ ^ ^ ^ ^ / _ ( R _ _ _ _ _ / / / / _ P u a *.O.^ ^ / / / _ _ _ _ _ _ _ _ / / / / / / ( ....| } / / / ~ L P s e ",
":.3./ ^ ^ ^ ^ ^ ^ ^ ^ ^ / ( _ O._ ^ ^ ( _ / / ( / / _ Q a i *.#.^ ^ ^ / / / ( ( _ ( _ _ / / / / / / ( ( ..../ ^ ^ ^ R ~ _ / H i ",
"4.:.^ ^ ^ ^ ^ ^ / / / / / ( / _ X...Q P / / / ( / / ( ^ f i #.#.^ ^ ^ ^ / / / / / _ / / / / / / ^ ^ ( ( ../ ! R ~ ! ^ / ( / K a ",
"3.*.^ ^ ^ ^ ^ / / / / ( _ / / ......( ! ~ / / / / / / / N i O.&.^ ^ ^ ^ ^ / / / / / / / / / / / ^ ^ ( ....E ~ ....| / / _ / N r ",
":.X.^ ^ ^ ^ / / / / ( _ _ ( ......( / ^ R / / ^ ^ / ( / f s #.&./ ^ ^ ^ ^ ^ ^ ^ / / / / / / / / / ( ^ ~ E ^ ......../ ( _ _ H r ",
"*._ / / / / / / ( ( _ _ _ X.....( / ^ / R ^ ^ / ^ / ( Q i f *.#./ ^ ^ ^ ^ ^ ^ ^ / / / ^ / / / / / ^ ! ....X.X.X.X._ _ _ _ _ Y u ",
";.#./ ^ ^ ^ / / / / ( _ _ ^ ^ ^ ^ ^ ^ ^ R R ^ ^ ^ ^ ..R u f *.X.^ ^ ^ ^ ^ ^ ^ ~ Q ~ ^ ^ ^ ^ ^ ^ ~ R ^ ......^ ^ ^ / _ _ / Q N u ",
"*.^ L N m m N J J N N L L N m N N N N N p b N N N J U L i a / L m d s d b N b s s f J J B d s i i b L L L m i u u s H L d e e , ",
"P N u e w , , , w , w u i , > e t t t e , t t t e u s s w > s t , , , , w e > ; > w t i t > = * > w t u i w > > > > w e > ; ; = ",
"L L H H N N m f f d i i i i e e w = = e N N d d f N L J d i a f N N N f f f f m m m d s w = @ u H f i e s f f N f f H H N f d f ",
"9.6.5.3.3.3.3.3.3.3.1.:.*.*.#.#.^ d i / 6.1.,.6.9.9.9.3.:.-.:.9.9.9.1.:.:.:.:.3.-.] v x c 2 , / 9.9.9.*.:.9.9.9.9.9.9.9.9.9.9.9.",
"-.;.:.:.*.#.#.#.%.&.*.;.;.;.;.;.^ c z ] { } ..+.-.+.+.X...X.%.&.+....._ ( X. .[ v 8 7 8 8 9 p #.<.:.:.3.:.8.4.:.*.&.*.*.*.&.&.&.",
"+.%.#.#.#._ ( / / ^ ^ ( ( ......U l 8 8 8 v {  ..... .^ ^ ^ ^ / ^ ^ / / ^ ^ C 8 7 8 8 8 8 7 k #.#./ / / _ _ _ ( / / / / / ( ( X.",
"%.%.+.#.#._ _ ( / / | ........_ U l 8 8 8 8 v {  . .} / / / / / ^ ^ / ^ ^ ~ z 8 8 8 8 8 8 6 j &.#./ / / ^ R / / / / / / ....O.%.",
"+.+.+.O.O._ _ / / ( ......X.X._ Y h 8 8 8 8 8 x [  .} ..( ( / / / | | } ^ D 8 8 8 8 8 8 0 y d *._ / / / ~ Q ^ / / ^ ^ | ..X.+.%.",
"X.+.O...X._ ( / ( ......O.O._ _ Y p 6 8 8 8 8 7 v } ..( _ ( / / ^ | ^ ^ T q 8 8 8 8 8 x M , d :._ / / ^ R / / ^ ^ ^ ^ ^ / X.%.O.",
"O.X.......( / / ......X.O.O.` ` Y i g q 8 8 8 8 q T ( _ _ ( ( ..} } / E q 8 8 8 8 q x E J , u ,.7./ / Q ^ / / / ^ ^ ^ ^ / X.O.O.",
"X._ ( ..( ( / / ........O._ O.#.R u i G q 8 8 8 8 v ^ _ _ X.....} | ^ x 7 8 8 q x D E ^ L w e :.w.X.^ / / / / ^ ^ ^ ^ ^ ^ / ( ( ",
"/ / / ( / ( ( / } } ...._ _ ` O.I t d -.{ z 7 8 8 8 C ( O.+.o.....^ v 8 8 8 q D E ~ ^ ^ Y e t <.9./ ^ / ^ / / ^ ^ ^ ^ ^ / / / / ",
"/ / / / / / ( / } / ( ( _ _ X.O.I e p -.+.] A q 8 8 8 A } ......^ v 8 8 8 q T ^ ^ ^ ~ ^ R i t :.*.^ ^ ^ / / / ^ ^ ^ ^ ^ ^ / / / ",
"/ / / / / / / / / / ( ( _ _ O.o.I e i ;.%.( / T q 8 8 8 A ^ ^ W x 8 8 8 q T ^ ^ ^ ^ ~ ^ P e i &._ ^ ^ ^ ^ ^ ^ ^ ^ ^ ^ ^ / / / / ",
"_ _ ( / / / / / / / ( _ _ O.+.+.U u p -.:.` _ _ T q 8 8 q G } v 8 8 8 z E / ^ ^ ^ ~ ^ ^ J , d &./ / / ^ ^ ^ ^ / ^ ^ ^ ^ / / ( / ",
"P P P P P R R R Q R R R R R R R N t i %.#.^ ~ ~ Q Z 8 8 8 q z 8 8 8 8 S R R R R R P U L m , d ^ Q R R R Q Q R Y P R R R R R R P ",
"t w w w w e t i i u t u u t t t t > e L m i i u t t < 6 8 8 8 8 8 6 1 t t t u u u t t t e ; w f s i u u u a i u u i u i i u u u ",
"+ O @ + O O O = = + O O O + O O = = = ; = O O O O O O & 8 8 8 8 7 # O ; = = + + + = = = @ @ = = = = + + + @ @ @ = = + + @ @ = = ",
"J J J N w O d H H N N H J L L J L L J L L L L L L L B 9 8 8 8 8 7 < N R Q R P P L Y P P P R R Q R P P J N N N H H f d f N L L J ",
";.%.#.~ p = P _ O.#.#.%.+.....^ ..X...+.&.*.=.:.:.} x 8 8 8 8 8 8 8 T 3.q.8.3.3.<.:.<.1.;.*.;.:.:.:.:.:.:.:.:.:.*.#.#.%.*.*.:.3.",
"_ / / R i ; R X./ / / / ..} / ^ ^ / / / / ( _ ` ^ z 7 8 8 v A q 8 8 z @.:._ _ ( / / / ( / ( _ ( / / / / ( _ _ _ ^ ~ ^ ^ ^ ^ ( X.",
"/ / / R i , R ^ ^ / / / / ( ^ ^ ( / / / / ( _ W x 8 8 8 v ^ ^ V 8 8 7 x ^ / / / / ^ ^ ^ / / / / / / ^ / / ^ / / ^ R ^ ^ ^ ^ ^ ^ ",
"/ / / P t , R ^ ^ / / ^ ( / / ^ ( ( ( / ( X.W x 7 8 7 x ^ / ^ N 4 7 8 8 v ^ / / / ^ ^ / / / / / / / / / ^ / / / ^ R ^ ^ ^ ^ ^ / ",
"/ / ( P e , Q ^ / / ^ / / ..../ / _ ( ( X.} x 8 8 8 x W / / / m , 3 8 8 8 A / / / / / / / / / / / / / ^ / / / ^ ^ ~ ~ ^ ^ ^ / / ",
"/ _ _ L e > ~ / / ^ ^ / ( ( ( ( / _ _ ( ..A 8 8 8 x ^ ( / / / m ; t A q 7 q A ^ / / / / / / / / / / / / _ / / ^ ^ R ^ ^ / / / / ",
"_ _ _ J e , ^ _ / ^ ^ / ( ( _ / / _ ( / F q 8 8 q W _ ( / ( / m ; e / ] q 7 8 A ^ / / / / / / / / / / / _ ( / ^ ^ ~ ^ ^ / / / / ",
"_ _ ( H w > ^ ( ^ ^ ^ / ( _ _ ^ _ _ / A q 8 8 q F / ( / / / ( H ; e ^ O.T q 8 8 A ^ / / / / / / / / / / _ ( / / ^ ~ ^ / / / / _ ",
"_ _ / N , , / / ^ ^ / / / _ _ / _ ( F q 8 8 8 A / / / / / / ( J ; e X.O.^ D q 8 q A / / / / / / / / / / / / ^ ^ ^ ~ ^ / / / _ _ ",
"_ _ / N w > ^ / ^ ^ / / / / _ / ( T q 8 8 7 v ^ _ / / / / ( ..L ; w X.X.^ ^ D q 7 q D ^ / / / / / ( / / / ( / ^ ^ / ~ / / _ _ _ ",
"` _ / N e ; ~ / ^ ^ ^ / / / _ ^ ^ A 8 8 8 x E / _ / / ( ( ( ( U , w ( ..^ / ^ D q 7 q A / ( ( ( _ ( / / ^ ^ ^ ^ ^ _ / / / _ _ _ ",
"_ _ ^ N e ; R / / ^ ^ ^ ~ ~ ~ R R C 8 8 q E / / / / / / / ..^ R e e ( ../ / / / D q 7 z ^ ( ( ( _ _ / ^ ^ ^ ^ ^ ^ / / _ / _ _ ' ",
"L H N d e = N J N N m f d s a u p 9 7 5 n H H N m m N N N N m b w e Q R L L L J P M 0 8 V K L P P R U I L L L L L J H L P P P P ",
"w w , w ; O , , = = = = + O O O O % % = = = = = = = = * O O $ = + @ t , , w , , e t , : - ; ; , t u u u t t e t t e ; = > , , > ",
"r > = + O @ ; , e u u e > = ; , u i i u > . O ; w e > = = = = ; > , , , w e , = + = , u i s i t w > = @ = = > > O O O @ > > > > ",
"*._ ~ P K P ~ _ #.#.#.#._ / / _ _ _ / ~ P ; e J R ^ / / ( X.O.O.#.O.O.#.#.#.#./ J ^ #.*.*.#.O._ / ~ R L P R R d = O i L ~ ~ ^ ( ",
"<.3.8.8.8.8.3.3.:.:.*.#.#.&.&.#.X._ _ ^ d O i R ;.%.%.-.-.-.:.:.=.#.#.#.#.#.-./ *.9.6.:.&.O.( X.%.&.&.&.*.*.^ s = ; Y *.*.#.#.#.",
"_ _ _ ' #.O._ / / ^ ^ ~ ~ ^ ^ ^ ^ ^ / ~ i O i Q ..^ ^ ^ / / ( _ _ _ _ / / ^ ^ R Q / / / / / ^ ^ ^ ^ ^ ^ / / / N = ; R *._ _ _ _ ",
"_ _ / / / / / / ^ ^ ^ ^ ^ ^ ^ / / / / ~ i O i R ^ ^ / / / ( ( _ _ _ _ _ / ^ ^ ^ R ^ ^ / ^ ^ ^ ^ ^ ^ ^ ^ ^ ^ / R ; O P :._ _ _ _ ",
"( _ / / / _ / / ^ ~ ~ ~ ^ ^ / / / / / ~ i O s Q ^ ^ / ....( ( _ ` O._ ( / ^ ^ ^ R ^ / / ^ ^ ^ ^ ^ ^ ^ ^ ^ / / R = . H <.` _ _ _ ",
"( / / _ ( ( / ^ ^ ~ ~ ^ ^ ^ / / / / / ~ i O d ~ ^ ^ ..+.X.X.X.X.#.#.O.X./ / / ~ R / / ^ / ....^ ^ ^ / / / / / L O   s :.#./ _ _ ",
"/ / ( ( / / / ^ ~ ~ ^ ^ ^ ^ ^ ^ ^ ^ ^ Q t O d ^ ^ / ..X.O.O.O.+.%.%.+._ / / / R ~ / / / / ../ ^ ^ ^ / / / / / N O   i :.*./ / ( ",
"/ / / / / ^ ^ ^ ^ ^ ^ ^ / / ^ ^ ~ ~ ^ Q e O f ~ ^ ^ ..( X.O.X.+.+.+.O._ ( / ~ L ^ / / / / / / ^ ^ ^ / / / / ^ N O   s <.#./ _ _ ",
"/ / / ^ ~ ~ / / / / / / / / ^ ^ ~ ~ ^ R t O f ~ ^ ^ ^ / X.X.X.X.X.X.X.X.( / / R ~ / / ( / / / ^ ^ / / / / / / L + . N :.X./ ( / ",
"/ / ^ ^ ~ ~ ^ / / / / / / ^ ^ ^ ~ ~ ^ R u O N ~ ^ ^ ^ ..O.+.O.X.( X.X.X._ / / ~ R ^ / _ X.( / / / / / / ^ ^ ^ L + . P *./ / / / ",
"^ / ^ ^ ^ ^ ^ / / / / / ^ ^ ^ ^ ^ ^ ^ Q u O N Q ^ ^ / X.O.O._ ( ( ( ( ( _ / / / Y R / ( X.( ( / / / / / ^ ^ / L * O R O.^ ^ ^ ^ ",
"^ / ^ ^ / ^ ^ / / / / ^ ^ ^ ^ ^ / / ^ ~ i O f Q ^ ^ ( X.O._ ( / / / / / / / / / Q R / / ( ( ( / / / / ^ ^ ^ ^ L * @ Q ( ^ ^ ^ ^ ",
"/ / / ^ / / ^ / / / / ^ ^ ^ ^ / / / ^ ~ s O s Q ^ / / / _ _ / / / / / / / / / / / ~ / / / / / / / / / / / / ^ P = = Q / ^ ^ / / ",
"R ~ ^ ^ ^ ~ ^ ^ / / / ^ ^ ^ ^ ^ ^ / ^ ~ a O a Q ~ / / / / / ^ ^ ^ ^ ^ ^ ^ ^ ^ ^ ~ R Q Q ^ / ~ ~ ~ ~ ~ ^ / ^ ^ J = = R ^ ~ ^ ^ Q ",
"u p s s s i s f m J L N N N N N N N N d e O e d s i i i i i u u i s p p p i u u u , e e u i i u t t t u i p i , = = p i i s p u ",
"O + O O + = = = = , , ; ; , e > = = ; ; = O O = = * O O o . . X X . X X X . . X o . . . . . X X X . X o O O O o o . X . . O O O "
};
