/* XPM */
static char *a23159072e4b44e69cb44502880a9b7830gP8IX7bsdoKNqK[] = {
/* columns rows colors chars-per-pixel */
"64 64 37 1 ",
"  c #EB1D26",
". c #EC1C25",
"X c #DF2027",
"o c #DB2128",
"O c #DF2128",
"+ c #D0353B",
"@ c #E22027",
"# c #AC6E2B",
"$ c #B46D20",
"% c #B26E26",
"& c #D7474C",
"* c #F27657",
"= c #F37658",
"- c #EE7C60",
"; c #B88956",
": c #BC8B58",
"> c #F7A445",
", c #FAA341",
"< c #FAA442",
"1 c #F4A44A",
"2 c #C89E74",
"3 c #EB9480",
"4 c #D6AE85",
"5 c #D9B997",
"6 c #F1A897",
"7 c #F7B4A3",
"8 c #F8B3A3",
"9 c #F4B9AB",
"0 c #E9D6C3",
"q c #FCDFD8",
"w c #FEEDDC",
"e c #FFE8E1",
"r c #FFFEF2",
"t c #FFFAF9",
"y c #FFFEF8",
"u c #FFFBFC",
"i c white",
/* pixels */
",,,,,ii..............ui,,,,,,,,,,,,,,,it..............ii,,,,,,,<",
",,,,,ii..............ui,,,,,,,,,,,,,,,it..............ii,,,,,,,<",
"iiiiiiiiiiiiiiiiiiiiiiiiiiiiiiiiiiiiiiiiiiiiiiiiiiiiiiiiiiiiiiii",
"iiiiiiiiiiiiiiiiiiiiiiiiiiiiiiiiiiiiiiiiiiiiiiiiiiiiiiiiiiiiiiii",
"***************i$$$$$$$$$$$$$$$ii**************7i$$$$$$$$$$$$$$$",
"***************i$$$$$$$$$$$$$$$ii**************8i$$$$$$$$$$$$$$$",
"***************i$$$$$$$$$$$$$$$ii**************8i$$$$$$$$$$$$$$$",
"***************i$$$$$$$$$$$$$$$ii**************8i$$$$$$$$$$$$$$$",
"**************3i:$$$$$$$$$$$$$$ii**************ii$$$$$$$$$$$$$$$",
"iiiiiiiiiiiiiiiiiiiiiiiiiiiiiiiiiiiiiiiiiiiiiiiiiiiiiiiiiiiiiiii",
"XXXXXii11111111111111ii&XXXXXXXXXXXXX+ii11111111111111iioXXXXXXO",
".....ii,,,,,,,,,,,,,,yi...............ir,,,,,,,,,,,,,,ii........",
".....ii,,,,,,,,,,,,,,yi...............ir,,,,,,,,,,,,,,ii........",
".....ii,,,,,,,,,,,,,,yi...............ir,,,,,,,,,,,,,,ii........",
".....ii,,,,,,,,,,,,,,yi...............ir,,,,,,,,,,,,,,ii........",
"iiiiiiiiiiiiiiiiiiiiiiiiiiiiiiiiiiiiiiiiiiiiiiiiiiiiiiiiiiiiiiii",
"iiiiiiiiiiiiiiiiiiiiiiiiiiiiiiiiiiiiiiiiiiiiiiiiiiiiiiiiiiiiiiii",
"$$$$$$$$$$$$$$$i***************ii$$$$$$$$$$$$$$4i**************=",
"$$$$$$$$$$$$$$$i***************ii$$$$$$$$$$$$$$4i**************=",
"$$$$$$$$$$$$$$$i***************ii$$$$$$$$$$$$$$4i**************=",
"$$$$$$$$$$$$$$$i***************ii$$$$$$$$$$$$$$4i**************=",
"$$$$$$$$$$$$$$2i6**************ii$$$$$$$$$$$$$$ii**************=",
"iiiiiiiiiiiiiiiiiiiiiiiiiiiiiiiiiiiiiiiiiiiiiiiiiiiiiiiiiiiiiiii",
",,,,,ii..............ii1,,,,,,,,,,,,,>ii..............ii,,,,,,,<",
",,,,,ii..............ui,,,,,,,,,,,,,,,it..............ii,,,,,,,<",
",,,,,ii..............ui,,,,,,,,,,,,,,,it..............ii,,,,,,,<",
",,,,,ii..............ui,,,,,,,,,,,,,,,it..............ii,,,,,,,<",
",,,,,ii..............ui,,,,,,,,,,,,,,,it..............ii,,,,,,,<",
"iiiiiiiiiiiiiiiiiiiiiiiiiiiiiiiiiiiiiiiiiiiiiiiiiiiiiiiiiiiiiiii",
"iiiiiiiiiiiiiiiiiiiiiiiiiiiiiiiiiiiiiiiiiiiiiiiiiiiiiiiiiiiiiiii",
"***************i$$$$$$$$$$$$$$$ii**************8i$$$$$$$$$$$$$$$",
"***************i$$$$$$$$$$$$$$$ii**************8i$$$$$$$$$$$$$$$",
"***************i$$$$$$$$$$$$$$$ii**************8i$$$$$$$$$$$$$$$",
"***************i$$$$$$$$$$$$$$$ii**************8i$$$$$$$$$$$$$$$",
"**************9i5$$$$$$$$$$$$$$ii**************ii#$$$$$$$$$$$$$$",
"iiiiiiiiiiiiiiiiiiiiiiiiiiiiiiiiiiiiiiiiiiiiiiiiiiiiiiiiiiiiiiii",
".....ii,,,,,,,,,,,,,,iio.............@ii,,,,,,,,,,,,,,ii........",
".....ii,,,,,,,,,,,,,,yi...............ir,,,,,,,,,,,,,,ii........",
".....ii,,,,,,,,,,,,,,yi...............ir,,,,,,,,,,,,,,ii........",
".....ii,,,,,,,,,,,,,,yi...............ir,,,,,,,,,,,,,,ii........",
".....ii,,,,,,,,,,,,,,yi...............ir,,,,,,,,,,,,,,ii........",
"iiiiiiiiiiiiiiiiiiiiiiiiiiiiiiiiiiiiiiiiiiiiiiiiiiiiiiiiiiiiiiii",
"iiiiiiiiiiiiiiiiiiiiiiiiiiiiiiiiiiiiiiiiiiiiiiiiiiiiiiiiiiiiiiii",
"$$$$$$$$$$$$$$$i***************ii$$$$$$$$$$$$$$4i**************=",
"$$$$$$$$$$$$$$$i***************ii$$$$$$$$$$$$$$4i**************=",
"$$$$$$$$$$$$$$$i***************ii$$$$$$$$$$$$$$4i**************=",
"$$$$$$$$$$$$$$$i***************ii$$$$$$$$$$$$$$4i**************=",
"$$$$$$$$$$$$$$0iq**************ii$$$$$$$$$$$$$$ii-*************=",
"iiiiiiiiiiiiiiiiiiiiiiiiiiiiiiiiiiiiiiiiiiiiiiiiiiiiiiiiiiiiiiii",
",,,,,ii..............ii,,,,,,,,,,,,,,,ii..............ii,,,,,,,<",
",,,,,ii..............ui,,,,,,,,,,,,,,,it..............ii,,,,,,,<",
",,,,,ii..............ui,,,,,,,,,,,,,,,it..............ii,,,,,,,<",
",,,,,ii..............ui,,,,,,,,,,,,,,,it..............ii,,,,,,,<",
",,,,,ii..............ui,,,,,,,,,,,,,,,it..............ii,,,,,,,<",
"iiiiiiiiiiiiiiiiiiiiiiiiiiiiiiiiiiiiiiiiiiiiiiiiiiiiiiiiiiiiiiii",
"iiiiiiiiiiiiiiiiiiiiiiiiiiiiiiiiiiiiiiiiiiiiiiiiiiiiiiiiiiiiiiii",
"***************i$$$$$$$$$$$$$$$ii**************8i$$$$$$$$$$$$$$$",
"***************i$$$$$$$$$$$$$$$ii**************8i$$$$$$$$$$$$$$$",
"***************i$$$$$$$$$$$$$$$ii**************8i$$$$$$$$$$$$$$$",
"***************i$$$$$$$$$$$$$$$ii**************8i$$$$$$$$$$$$$$$",
"**************eiw$$$$$$$$$$$$$$ii**************ii;$$$$$$$$$$$$$%",
"iiiiiiiiiiiiiiiiiiiiiiiiiiiiiiiiiiiiiiiiiiiiiiiiiiiiiiiiiiiiiiii",
".....ii,,,,,,,,,,,,,,ii.............. ii,,,,,,,,,,,,,,ii........",
".....ii,,,,,,,,,,,,,,yi...............ir,,,,,,,,,,,,,,ii........"
};
