/* XPM */
static char *_05a5f11e21e4ceec0d04feb2dd494e22pgmEjMSsnOoZ9ZT[] = {
/* columns rows colors chars-per-pixel */
"64 64 136 2 ",
"   c #2F353E",
".  c #31373F",
"X  c #313740",
"o  c #363C45",
"O  c #393E47",
"+  c #3A3F48",
"@  c #3C434C",
"#  c #3E4751",
"$  c #3F4852",
"%  c #404651",
"&  c #424A55",
"*  c #454E59",
"=  c #47515C",
"-  c #49535D",
";  c #4B5661",
":  c #4E5964",
">  c #4F5C6B",
",  c #515C66",
"<  c #535E69",
"1  c #55616C",
"2  c #59656E",
"3  c #566471",
"4  c #5A6671",
"5  c #5D6A75",
"6  c #5E6D79",
"7  c #60676F",
"8  c #606D77",
"9  c #616E7A",
"0  c #64727D",
"q  c #68757E",
"w  c #73777C",
"e  c #777A7E",
"r  c #667681",
"t  c #687781",
"y  c #6A7A84",
"u  c #6E7E89",
"i  c #727D84",
"p  c #7A7D81",
"a  c #707F89",
"s  c #6F808C",
"d  c #72828D",
"f  c #78878F",
"g  c #758691",
"h  c #788790",
"j  c #778994",
"k  c #7B8C96",
"l  c #7C8E99",
"z  c #7D919B",
"x  c #7D919C",
"c  c #7E929E",
"v  c #7F949E",
"b  c #7F93A0",
"n  c #7F94A0",
"m  c #83868A",
"M  c #808E97",
"N  c #898F92",
"B  c #808F98",
"V  c #819097",
"C  c #8E9094",
"Z  c #83919B",
"A  c #83929B",
"S  c #81939D",
"D  c #85939C",
"F  c #83959F",
"G  c #8B959B",
"H  c #8A989F",
"J  c #92999D",
"K  c #8297A2",
"L  c #8495A0",
"P  c #8997A0",
"I  c #8498A3",
"U  c #8798A2",
"Y  c #8699A4",
"T  c #879CA6",
"R  c #889AA5",
"E  c #8A9CA5",
"W  c #8A9DA7",
"Q  c #879DA9",
"!  c #8B9DA8",
"~  c #8D9FA9",
"^  c #8C9FAA",
"/  c #899FAC",
"(  c #929EA5",
")  c #9D9FA1",
"_  c #8BA0AA",
"`  c #8DA0AB",
"'  c #8BA1AF",
"]  c #8EA2AE",
"[  c #9AA0A4",
"{  c #91A3AC",
"}  c #90A3AF",
"|  c #91A5AF",
" . c #9BA5AA",
".. c #9EA8AF",
"X. c #8EA4B0",
"o. c #91A5B1",
"O. c #91A6B2",
"+. c #93A8B3",
"@. c #94A8B3",
"#. c #93A9B4",
"$. c #9DABB2",
"%. c #95ADBA",
"&. c #A4A9AB",
"*. c #A8A9AA",
"=. c #A5AEB2",
"-. c #A5B0B5",
";. c #ABB3B6",
":. c #ABB5B9",
">. c #AEB8BD",
",. c #B2B4B4",
"<. c #B0B7B9",
"1. c #B3B9BC",
"2. c #B9BEBE",
"3. c #BABEC0",
"4. c #B6C0C3",
"5. c #BDC2C3",
"6. c #C2C5C5",
"7. c #C9C6C2",
"8. c #CBCAC7",
"9. c #C6C9C9",
"0. c #CCCDCC",
"q. c #D2CFCC",
"w. c #D1D1CF",
"e. c #D4D3D1",
"r. c #D9D7D3",
"t. c #DBD9D6",
"y. c #DFDCD8",
"u. c #E3DCD7",
"i. c #E1DEDB",
"p. c #E5E1DC",
"a. c #EAE4DE",
"s. c #ECE6E0",
"d. c #EEE8E2",
"f. c #F3ECE5",
"g. c #F7F0E8",
"h. c #FCF3EB",
/* pixels */
"9 u u u d d d d f k k l l j k l d k l l l j g u y y y 9 * & , 2 6 0 0 0 0 0 0 r y y t 0 0 9 9 0 y u u r q t y d d u y t u g u 6 ",
"Y R U S F L U U Y W ` ] | o.+.Y ! ' / Q Y Y U K Y T Y g < 2 j F F F K K Y ! ] X.X.X.X.X.X.X.X.X.X.X.X.] ] ] { | | { ] ] ^ R k y ",
"^ ! S k k k k k k k k l c S c g l l l l l l l c c c c u < 5 Y F k k k l l l c n b n K K Y Y Y Q Y K F F F F D D F Z S Z Z Z d 6 ",
"] R l k k k k k k k k k k k k d k l l l l l l z c c c s 1 0 ! c k k l l l l z z l l l l l l l l l l k k k k k k M k k l l c j 5 ",
"o.! l k k k k k k k k k k k l d k l l z z l l l l l F g 1 0 _ F k l l z c c c c c c z l l l l l l l l k k k M k M M l z c c s 3 ",
"+.` l k k k k k k k k k k l l g k c c c c l l l l l c u : 5 _ K k k l l c c c c c c z z z l l l l l k k k l B B l l z c c l y 1 ",
"@.` l k k k k k k k k k k l z g j v c c c c l l l z l r : 5 ! S k k l l z c c c c c c c z l l l l l k l l B M B l z c c j g r > ",
"] ` z k k k k k k k k k k l c l f c c c c z l l l z c u < 3 Y S k k l l l z c c c c c c z l l l l l l z Z Z B M k l l j y u 5 : ",
"| ` l k k k k k k l k l l z c F c k k z c l l z l l c g 3 1 Y F k k k l l l z z c z c c l l l l l k l z Z Z k k k k d g z l y 3 ",
"o.W k k k k k k l l l l l z l c S Z f u l l l z l l z k 5 1 K K k k k k l l l l l z l l l l l l k k z z Z l h f j j k l z l y 3 ",
"] L k k k k k l l l l z c l l Z Z Z z g j l l l l l l l 0 1 K Y k k k k k l l l l l l l l l l l k k z Z Z f j Z Z B k l z c r < ",
"! c k k k k l l l l z c c z Z Z Z z l k f l l l k l z k 5 5 U U l k k k k k k k l l l l l l l l l l k j f k Z Z Z Z l z z c y > ",
"Y z l l l l l l z z c c c z Z Z z l k l d k k l k l z g 1 6 Y K l k k k k k k k l l l k k l l l l k h Z Z S S Z Z c c c c c d 1 ",
"! F l k k k l l l l l c z k k k k k k k d d k k k k Z d < 9 Y S k k k k k k k g g j k j k k k k k d k Z Z Z k k k l c c l g 0 1 ",
"Y j t 0 9 9 0 t q 0 0 y y 0 9 0 0 0 0 9 1 8 0 9 0 y a y 1 4 l y 9 5 2 4 8 q 8 4 4 5 t y q 5 4 < < 5 y u u 9 1 < < 4 r y 5 : : ; ",
"u 6 < : ; = = - ; - ; < < - = : , , , : - , , , : < 4 4 - = 4 , - = = = ; : - * = ; , 1 , - & % - ; , , 1 ; * = = = ; : = * * & ",
"y y r r q 0 9 6 9 5 2 1 1 1 : : ; & & : q q 5 5 9 q u y 5 1 3 6 0 r 0 6 6 6 6 9 0 0 9 8 : & & < r 9 2 : 4 5 0 0 6 6 r r 0 6 5 6 ",
"o.] ] ] ] ] ] ] ] ] ] ! R Y L L k 5 5 P | ! ] @.+.o.o.] ! R ` o.o.o.` ! ! ! ! ] ] $.4.r.8.*.N S #.%.o.Y T #.o.o.o.o.#.#.#.o.o.o.",
"R W ! W Y U K K L U R W W W W R k 0 [ i.9.-.( ^ ^ F F S Z S L U F Z Z c z Z S ^ ;.t.h.h.h.h.a.$.! Q ! ' ! X.] ! Y U U Y Y U U U ",
"F L K K F c z l l k k z z Z Z Z a 5 *.h.h.h.r. .D Z V k k k k l k k l l k k k 5.f.h.h.h.h.h.h.4.K l l l l l c z l l l l l z z S ",
"L L F K K c z z l l Z Z Z Z S c u 5 ,.h.h.h.h.t. .V M l l l l l k k l k k j k e.h.h.h.h.h.h.f.>.K l l l k d l l l l l l Z Z F L ",
"F F F F F c c l l z Z Z Z S c c u 1 ) h.h.h.h.h.p. .Z Z z z l l l B l M k k &.f.h.h.h.h.h.u.J W c l l l j f k l l k k B Z S F L ",
"F F S Z S c z l z Z Z Z F F c c u , y p.h.h.h.h.h.r.P z c z l l k B k k k ..s.h.h.h.h.h.t.m 5 ! S l l k f l l l k k k k l S L F ",
"F S Z Z Z z l l Z Z Z S F F v v u < 8 <.f.h.h.h.h.f.-.F c z z Z M M k k ( p.h.h.h.h.h.y.G ; : ! X.l l g k l l l k k k k l S F F ",
"S c z z z z l l Z V Z Z S c F F u , 2 W 2.d.h.h.h.h.t.{ c Z Z Z M M k F w.h.h.h.h.i.:.P a ; - Q %.S k l l l l k k k k k k l z z ",
"l l l z z z z l M M z Z c c v F y : 5 ^ H =.a.h.h.h.h.e.^ S D Z Z k F 9.h.h.h.f.5.W k j d , : ! #.l k l k l l k k k k k k l l l ",
"l l l l l l z l M l z z c c S F y ; 5 R F Z =.9.d.h.h.h.0.H Z V k F 6.h.h.h.f.;.k k k k d 1 : Y Y k k k l l k k k k k l k l l l ",
"l l l l l l l l l l z z c c F D u ; 4 ! L z l l -.f.h.h.h.5.Z j Z 0.h.h.h.f.=.k k k j k d , , L c k k k k k k k k k k k l l l l ",
"c c z l l l k l l l z c c F F F u , 5 W T v c K K :.f.h.h.h.5.^ w.h.h.h.f.=.k k k k k k y - 4 L l l l k k k k l k k k k l l l l ",
"u s s u u d f g g f d d d g f d 0 : 4 U K k k k j k =.f.h.h.g.a.h.h.h.s.&.d d d d d d u 9 - 4 l g d d d g g d d s d d d g d d u ",
", : : : : , < 1 1 1 < < < < < , , * < u 9 2 1 1 < , < C a.h.h.h.h.h.u.m , , < < < < , , , * ; 6 4 1 < < 1 4 1 < < 1 1 1 2 1 < < ",
"@ @ # @ @ @ @ & & # @ @ @ @ @ @ & & & * # @ @ @ @ @ @ O m h.h.h.h.f.p & & # # # # & & & # # & & & & # # # $ & $ & & # # # # & & ",
"q q r 9 = # 5 0 0 0 0 q y y y q y y t y y y y y t y r i 7.h.h.h.h.h.,.d d s y y y u y y u u d d u y y r 6 6 0 0 0 5 4 5 9 r r q ",
"R L K g 1 = d c F K K L F Z Z k Z Z Z F U Y W ! ! W -.i.h.h.h.h.h.h.f.4.#.X.] ] _ ! _ _ W Y W ! ! _ ! ! ! ! ! ! Y K K U Y Y ! ] ",
"c l z d , = g S l l l l l k l k k l l l z z c v c { p.h.h.h.r.,.f.h.h.f.:.c c z l l l z l c c z l l z z z c c c k j k k k l z S ",
"l l l u , - f k k l l l k z k k l l l l l l z c { t.h.h.h.t.W r ) f.h.h.p.^ l l l k k k l l l l l l k l l k l l k d k k k k k k ",
"l l l y : : f k k l l k k l k k z z z l z Z z ( t.h.h.h.p.^ k 9 ; ) h.h.h.t.P l l k k l l l l l l l l l k l l l k f k k k k k l ",
"l l l y ; ; g k l l k l z Z Z k z c z l Z Z W r.h.h.h.a...l l 9 * , 6.h.h.h.9.l k l l l l l l l l l l k l l l k k h j k k k l l ",
"l c z y ; ; k l l k k l z Z c c l c c z Z Z 5.h.h.h.p. .l l l 6 * : F 5.f.h.h.5.F k l l l l l l l l l l l l l k k f j k l l l l ",
"c c z r - : l l l k l l z z c l l c z z Z -.f.h.h.f.$.z l z l 9 * , l L :.f.h.h.9.S l l l l l l l l l l c z l k k j k k l l l l ",
"c c l 0 = : z l k k l l z c c k c c z Z <.f.h.h.f.5.L l l l z 0 & : k S l =.d.h.h.6.z l l l l l l l l l z z l l k j k l l l l z ",
"c c l 9 = : z l k k l l l c c l c z Z ;.f.h.h.h.0.L l l l l z t & : S F k k =.f.h.h.5.Z l l l l l l l l l l k k k j k l l l z c ",
"c c l 6 = ; z l k k l l l l c l z z ..s.h.h.h.i.^ l l l l z Z y * ; S S k k k =.f.h.h.2.Z l l l l z l l l z z k k k g l l z c c ",
"c c k 9 ; = k l k k k l l l z k k Z 5.h.h.h.p.-.c l l l z z z a = : Z Z k l k l -.f.h.h.6.S z z c z l l k k k k k z k l l c c c ",
"c c j 6 : = j l l k k k k k k f g j 3.h.h.f.=.l l l l l l Z B d ; : z z l l l l l 1.f.h.d.{ z z c c l l k k k k k l l z l c c n ",
"y y r 5 ; & y y y q 0 0 6 5 4 < 4 9 q.f.0.[ y r r r r t t q 0 9 ; : j d u u a u d d ( r.h.1.u u d d d d a d a d u y y u s s s d ",
": : ; : * # : ; & & & & # # @ @ @ % w e ; - * * & & & & & & & * & & 1 : : : ; - < < , 7 w 2 = : < 1 1 < 1 < , , < < = * ; ; ; ; ",
"; * # @ @ # & * ; : : - & # & = : < < ; & o @ & = = & @ @ @ @ & * * * * - - = & # & * : , 1 < ; = & & # # & * * # @ @ @ * & * * ",
"K k s r 9 y g l c K K c l j j l l l l j y & : r d j k j k k l z z z z c c c c j 0 d z K K K c l k f u q y a u 5 $ @ : r d g g k ",
"' X.X.X.] ] ] ] ] ! Y U U Y R K F c c j 5 # 1 g R U U W W ! ` _ ! Y U U L U W Z Y o.o.] Y F S F L Y R U Y R l 4 & & y K Y K K Y ",
"c c K K K K c z l k k j j k k k k k l j 1 @ 2 j S k k l l l z c c c c l l k k f j z z z l l k k k k l l l l l 0 & & s Y v c c c ",
"c c l l l l l l k k k k k k k l l l l g 1 @ 4 d k k l l l z z c c c c z l k k k d k k l k k k k k k k k k k l d = @ y T c c c c ",
"z c l l l l l l k j j j k k l l l l l g < @ 4 g k k l Z Z z z z v F c z l k k k d k l l k k k k k k k k k l l d * O q ! K c c c ",
"z l l z c z l k k j j k k k l l l l l g < @ 5 j k k Z F S c S S K K F S l k l j d l l k l B B k k k l l l l l u # . 1 ! Y l c c ",
"l l z z l l l k j j k k k k k k k l l d : @ 6 k k l Z F F S F F L L F c l l l d j l l l l Z l k k k l l l l l r @   : ! Y l l z ",
"l l l l l k k k k k k k l l k k k k k d ; @ 9 j k l Z z S F S F F F F c z l k u k l l l l l l k k k l l l l l r @   < ! U l z c ",
"l l l k k k l l l l l l l l k k j k k s : @ 0 j k k k l S S S S S S S S z l l s j l l l l l l k k l l l l l l y # X 5 ! S l z z ",
"l l k k j j k l l l l l l k k k j k k s , @ 0 j k k k Z F F F S z S S S c l l j s l l z c z l l l l l l k k k u & o y Y l l l l ",
"k k k k k k k l l l l l k k k k j k k g , # 0 j k k l S F F S z z z z z c l l l s g l z S z z l l l l l k k l u & @ d K k k k k ",
"k l k l l k k l l l l k k k k k l l k g < @ 0 g k k z S F c z l l l l l l l l l g s l l z z z l l l l k k k k u & @ d z k k k k ",
"l l l k l k k l l l l k k k k l l l k j 3 @ 5 g k l l z c c l l l l l l l l l l l j l l l l l l l l l k l l k d * @ d z k k l k ",
"j k k k k k k l l l l k k k k k l l k j 1 @ 5 g l l l l l l l k l l l l l l l l k g j j l l k k k k l l l l k u * # d l j k k k ",
"2 5 8 5 5 5 9 0 r u d t r y y y r r r 6 : @ < 9 6 5 5 5 5 5 4 4 5 9 8 8 5 5 4 4 1 : 1 1 4 5 5 4 1 1 2 4 5 5 5 , & & 5 5 5 8 5 2 ",
"# # & & & & * * = : : ; - , , ; * * = ; & @ # & & & @ @ @ @ @ + O O + @ @ + + @ @ O O + O + @ @ @ @ @ @ @ @ @ @ @ + @ O @ @ & & "
};
