/* XPM */
static char *ed6e3c2719fe42e5d56d71ad7a0a1850fFeh8HV4yLprkuke[] = {
/* columns rows colors chars-per-pixel */
"64 64 119 2 ",
"   c #B76D1B",
".  c #B66D1C",
"X  c #B86D1A",
"o  c #B86E1C",
"O  c #BB711E",
"+  c #BE711D",
"@  c #AF6E28",
"#  c #B36D22",
"$  c #B46D20",
"%  c #B26E24",
"&  c #BA7223",
"*  c #BC7220",
"=  c #BE7421",
"-  c #BF7526",
";  c #B1702A",
":  c #B2722F",
">  c #BD782F",
",  c #B07330",
"<  c #B47530",
"1  c #B77834",
"2  c #C17522",
"3  c #C17726",
"4  c #C67923",
"5  c #C47924",
"6  c #C87B26",
"7  c #C87C27",
"8  c #C47928",
"9  c #C67C29",
"0  c #CB7E28",
"q  c #CC7F2A",
"w  c #BC7F40",
"e  c #CE812A",
"r  c #CD812D",
"t  c #D1822A",
"y  c #D0832C",
"u  c #D3852C",
"i  c #D4852E",
"p  c #CF8432",
"a  c #D38632",
"s  c #D58730",
"d  c #D38734",
"f  c #D58931",
"g  c #D88931",
"h  c #DB8C33",
"j  c #DA8B35",
"k  c #DB8C34",
"l  c #DC8D37",
"z  c #DE9037",
"x  c #E29237",
"c  c #E3933A",
"v  c #E49238",
"b  c #E4943B",
"n  c #E2953C",
"m  c #E5963C",
"M  c #E8973C",
"N  c #E8983D",
"B  c #EC9B3F",
"V  c #BB8044",
"C  c #C68C4F",
"Z  c #CE9659",
"A  c #E99B43",
"S  c #ED9C40",
"D  c #EF9F45",
"F  c #F19F42",
"G  c #ECA14B",
"H  c #F7A241",
"J  c #F3A144",
"K  c #F6A244",
"L  c #F7A446",
"P  c #FAA341",
"I  c #F8A443",
"U  c #F8A344",
"Y  c #F8A444",
"T  c #F4A348",
"R  c #F3A44B",
"E  c #F6A448",
"W  c #F6A74F",
"Q  c #F7A84F",
"!  c #FAA94F",
"~  c #F4A852",
"^  c #FAAC54",
"/  c #FCAE55",
"(  c #F3AA58",
")  c #F6AD5A",
"_  c #F5AF5E",
"`  c #F9AF5B",
"'  c #D69F65",
"]  c #D7A065",
"[  c #D8A268",
"{  c #F7B262",
"}  c #FBB261",
"|  c #FEB663",
" . c #FDB564",
".. c #FAB76B",
"X. c #FDB768",
"o. c #FEB96A",
"O. c #FFBB6E",
"+. c #FFBC6E",
"@. c #E4AF77",
"#. c #E5B27B",
"$. c #FCBB71",
"%. c #FFBE71",
"&. c #FABB74",
"*. c #FFBE74",
"=. c #FFC27B",
"-. c #FFC47A",
";. c #FFC37F",
":. c #FFC57D",
">. c #FFC381",
",. c #FFC582",
"<. c #FDC587",
"1. c #F1C08B",
"2. c #F6C491",
"3. c #F7C694",
"4. c #FFCF9E",
"5. c #FFD1A0",
"6. c #FFD4A5",
"7. c #FFD6A9",
"8. c #FED7AD",
/* pixels */
"$ $ $ $ a $ $ 7.] $ $ $ $ $ $ 8.$ $ $ $ $ $ $ $ $ $ $ $ . $ $ 8.$ $ $ $ $ 5 $ 7.$ $ $ $ $ $ $ $ $ $ $ a $ $ 8.$ $ $ $ $ $ $ 8.8.",
"$ $ $ $ $ $ $ 7.] $ $ $ $ $ $ 8.$ $ $ $ $ $ $ $ $ $ $ $ $ $ $ 8.$ $ $ $ $ $ $ 7.$ $ $ $ $ $ $ $ $ $ $ $ $ $ 8.$ $ $ $ $ $ $ 8.8.",
"8.8.8.8.8.8.8.8.8.8.8.8.8.8.8.8.8.8.8.8.8.8.8.8.8.8.8.8.8.8.8.8.8.8.8.8.8.8.8.8.8.8.8.8.8.8.8.8.8.8.8.8.8.8.8.8.8.8.8.8.8.8.8.8.",
"$ $ $ $ $ $ $ $ $ # $ $ $ $ 8.1.$ $ $ $ $ $ 8.$ $ $ $ $ $ $ $ $ $ $ $ $ $ # 8.$ $ $ $ # $ Z 8.$ $ $ $ $ $ $ $ $ # $ $ $ $ 8.; $ ",
"$ $ $ $ $ $ $ $ u P P P <.I 8.@ $ $ $ v P <.8.$ $ $ $ $ $ $ $ $ P P P ..O.$ 8.$ $ $ $ P E $ 2.$ $ $ $ $ $ $ $ F P P P <.e 8.$ $ ",
"$ $ $ $ $ $ $ $ $ $ u P P $ 8.@ $ $ $ $ P P 8.$ $ $ $ $ $ $ $ $ $ $ P P P $ 8.$ $ $ $ $ P $ 2.$ $ $ $ $ $ $ $ $ $ P P P $ 8.$ $ ",
"$ $ $ $ $ $ $ $ $ $ $ $ $ $ 8.@ $ $ $ $ $ $ 8.$ $ $ $ $ $ $ $ $ $ $ $ $ $ $ 8.$ $ $ $ $ $ $ 2.$ $ $ $ $ $ $ $ $ $ $ $ $ $ 8.$ $ ",
"$ $ $ $ $ $ $ $ $ $ $ $ $ $ 8.@ $ $ $ $ $ $ 8.$ $ $ $ $ $ $ $ $ $ $ $ $ $ $ 8.$ $ $ $ $ $ $ 2.$ $ $ $ $ $ $ $ $ $ $ $ $ $ 8.$ $ ",
"8.8.8.8.8.8.8.8.8.8.8.8.8.8.8.8.8.8.8.8.8.8.8.8.8.8.8.8.8.8.8.8.8.8.8.8.8.8.8.8.8.8.8.8.8.8.8.8.8.8.8.8.8.8.8.8.8.8.8.8.8.8.8.8.",
"$ $ > $ $ $ $ 8.5.$ $ $ $ $ $ 8.$ $ $ $ $ $ $ $ $ $ > $ $ $ $ 8.$ $ $ $ > $ $ 8.$ $ $ $ $ $ $ $ $ > $ $ $ $ 8.< $ $ $ $ $ $ 8.8.",
"$ . P P P <.P 7.] $ $ $ . P <.8.$ $ $ $ $ $ $ $ $ Y P P L <.$ 8.$ $ $ $ P P $ 7.$ $ $ $ $ $ $ $ 2 P P P <.K 8.$ $ $ $ e P >.8.8.",
"$ $ $ $ P P $ 7.] $ $ $ $ 6 P 8.$ $ $ $ $ $ $ $ $ $ $ P P P $ 8.$ $ $ $ $ P $ 7.$ $ $ $ $ $ $ $ $ $ t P P $ 8.$ $ $ $ $ P P 8.8.",
"$ $ $ $ $ $ $ 7.] $ $ $ $ $ $ 8.$ $ $ $ $ $ $ $ $ $ $ $ $ $ $ 8.$ $ $ $ $ $ $ 7.$ $ $ $ $ $ $ $ $ $ $ $ $ $ 8.$ $ $ $ $ $ $ 8.8.",
"$ $ $ $ $ $ $ 7.[ $ $ $ $ $ $ 8.$ $ $ $ $ $ $ $ $ $ $ $ $ $ $ 8.$ $ $ $ $ $ $ 7.$ $ $ $ $ $ $ $ $ $ $ $ $ $ 8.# $ $ $ $ $ $ 8.8.",
"8.8.8.8.8.8.8.8.8.8.8.8.8.8.8.8.8.8.8.8.8.8.8.8.8.8.8.8.8.8.8.8.8.8.8.8.8.8.8.8.8.8.8.8.8.8.8.8.8.8.8.8.8.8.8.8.8.8.8.8.8.8.8.8.",
"$ $   0 b L P P } O.<.<.S $ 8.@ . h P } <.q 8.$ $ . 5 k E Y P R X.,.<._ O $ 8.$ 0 L P =.%.$ 2.$ . + u S L P P } *.<.,.b $ 8.$ . ",
"$ $ $ $ $ $ $ $ $ x P P ,.Y 8.@ $ $ $ $ P <.8.$ $ $ $ $ $ $ $ $ $ P P P  .$ 8.$ $ $ $ P P $ 2.$ $ $ $ $ $ $ $ $ P P P <.5 8.$ $ ",
"$ $ $ $ $ $ $ $ $ $ $ P P $ 8.@ $ $ $ $ 2 r 8.$ $ $ $ $ $ $ $ $ $ $ P P $ $ 8.$ $ $ $ $ P $ 2.$ $ $ $ $ $ $ $ $ $ $ P P $ 8.$ $ ",
"$ $ $ $ $ $ $ $ $ $ $ $ $ $ 8.@ $ $ $ $ $ $ 8.$ $ $ $ $ $ $ $ $ $ $ $ $ $ $ 8.$ $ $ $ $ $ $ 2.$ $ $ $ $ $ $ $ $ $ $ $ $ $ 8.$ $ ",
"$ $ $ $ $ $ $ $ $ $ $ $ $ $ 8.@.$ $ $ $ $ $ 8.$ $ $ $ $ $ $ $ $ $ $ $ $ $ $ 8.$ $ $ $ $ $ V 8.$ $ $ $ $ $ $ $ $ $ $ $ $ $ 8.# $ ",
"8.8.8.8.8.8.8.8.8.8.8.8.8.8.8.8.8.8.8.8.8.8.8.8.8.8.8.8.8.8.8.8.8.8.8.8.8.8.8.8.8.8.8.8.8.8.8.8.8.8.8.8.8.8.8.8.8.8.8.8.8.8.8.8.",
"P P ! <.<.Y $ 7.] 3 P P P <.P 8.$ $ 9 x P P P P P Y o.<.<.b $ 8.$ b P P / <.$ 7.$ & i P P P P P P / <.<.P $ 8.$ 7 P P P <.b 8.8.",
"$ $ . P P ~ P 7.] $ $ $ $ P <.8.$ $ $ $ $ $ $ $ $ $ P P P :.$ 8.$ $ $ $ z P $ 7.$ $ $ $ $ $ $ $ $ u P P ,.m 8.$ $ $ $ $ P $.8.8.",
"$ $ $ $ P P $ 7.] $ $ $ $ $ f 8.$ $ $ $ $ $ $ $ $ $ $ P P $ $ 8.$ $ $ $ $ P $ 7.$ $ $ $ $ $ $ $ $ $ $ P P $ 8.$ $ $ $ $ s $ 8.8.",
"$ $ $ $ $ $ $ 7.] $ $ $ $ $ $ 8.$ $ $ $ $ $ $ $ $ $ $ $ $ $ $ 8.$ $ $ $ $ $ $ 7.$ $ $ $ $ $ $ $ $ $ $ $ $ $ 8.$ $ $ $ $ $ $ 8.8.",
"$ $ $ $ $ $ $ 8.7.$ $ $ $ $ $ 8.# $ $ $ $ $ $ $ $ $ $ $ $ $ $ 8.$ $ $ $ $ $ : 8.$ $ $ $ $ $ $ $ $ $ $ $ $ $ 8.' $ $ $ $ $ $ 8.8.",
"8.8.8.8.8.8.8.8.8.8.8.8.8.8.8.8.8.8.8.8.8.8.8.8.8.8.8.8.8.8.8.8.8.8.8.8.8.8.8.8.8.8.8.8.8.8.8.8.8.8.8.8.8.8.8.8.8.8.8.8.8.8.8.8.",
"$ $ $ $ $ . v P P P P ,.<.q 8.@ $ $ g P P ^ 8.$ $ $ $ $ $ 2 L P P P R <.P $ 8.$ $ . P P <.$ 2.$ $ $ $ $ . N P P P P <.<.$ 8.$ $ ",
"$ $ $ $ $ $ $ $ $ $ P P P 4 8.@ $ $ $ $ P X.8.$ $ $ $ $ $ $ $ $ $ u P P P $ 8.$ $ $ $ $ P $ 2.$ $ $ $ $ $ $ $ $ $ P P } $ 8.$ $ ",
"$ $ $ $ $ $ $ $ $ $ $ P $ $ 8.@ $ $ $ $ $ $ 8.$ $ $ $ $ $ $ $ $ $ $ 0 c $ $ 8.$ $ $ $ $ E $ 2.$ $ $ $ $ $ $ $ $ $ $ P $ $ 8.$ $ ",
"$ $ $ $ $ $ $ $ $ $ $ $ $ $ 8.@ $ $ $ $ $ $ 8.$ $ $ $ $ $ $ $ $ $ $ $ $ $ $ 8.$ $ $ $ $ $ $ 2.$ $ $ $ $ $ $ $ $ $ $ $ $ $ 8.$ $ ",
"5.5.5.5.5.5.5.5.5.5.5.5.5.5.8.8.5.5.5.5.5.5.8.7.5.5.5.5.5.5.5.5.5.5.5.5.5.7.8.5.5.5.5.5.5.8.8.5.5.5.5.5.5.5.5.5.5.5.5.5.5.8.8.5.",
"6.6.6.6.6.6.6.8.8.6.6.6.6.6.6.8.7.6.6.6.6.6.6.6.6.6.6.6.6.6.7.8.6.6.6.6.6.6.8.8.6.6.6.6.6.6.6.6.6.6.6.6.6.6.8.8.6.6.6.6.6.6.8.8.",
"P P P P | <.L 7.] $ $ . P P >.8.$ $ $ $ $ $ . n P P P P <.Y $ 8.$ $ $ H P <.$ 7.$ $ $ $ $ $ . P P P P =.<.5 8.$ $ $ . P P Y 8.8.",
"$ $ $ P P P m 7.] $ $ $ $ P +.8.$ $ $ $ $ $ $ $ $ $ . P P P $ 8.$ $ $ $ $ P $ 7.$ $ $ $ $ $ $ $ $ $ P P P . 8.$ $ $ $ $ P U 8.8.",
"$ $ $ $ b $ $ 7.] $ $ $ $ $ $ 8.$ $ $ $ $ $ $ $ $ $ $ $ 8 $ $ 8.$ $ $ $ $ l $ 7.$ $ $ $ $ $ $ $ $ $ $ b $ $ 8.$ $ $ $ $ $ $ 8.8.",
"$ $ $ $ $ $ $ 7.] $ $ $ $ $ $ 8.$ $ $ $ $ $ $ $ $ $ $ $ $ $ $ 8.$ $ $ $ $ $ $ 7.$ $ $ $ $ $ $ $ $ $ $ $ $ $ 8.$ $ $ $ $ $ $ 8.8.",
"8.8.8.8.8.8.8.8.8.8.8.8.8.8.8.8.8.8.8.8.8.8.8.8.8.8.8.8.8.8.8.8.8.8.8.8.8.8.8.8.8.8.8.8.8.8.8.8.8.8.8.8.8.8.8.8.8.8.8.8.8.8.8.8.",
"$ $ $ $ $ $ $ $ $ $ $ $ $ $ 8.4.$ $ $ $ $ $ 8.$ $ $ $ $ $ $ $ $ $ $ $ $ $ % 8.$ $ $ $ $ $ #.8.$ $ $ $ $ $ $ $ $ $ $ $ $ $ 8., $ ",
"$ $ $ $ $ $ $ $ F P P P <.U 8.@ $ $ $ F P <.8.$ $ $ $ $ $ $ $ . P P P :.| $ 8.$ $ $ $ P ) $ 2.$ $ $ $ $ $ $ $ K P P P <.e 8.$ $ ",
"$ $ $ $ $ $ $ $ $ $ c P P $ 8.@ $ $ $ $ P P 8.$ $ $ $ $ $ $ $ $ $ $ P P P $ 8.$ $ $ $ $ P $ 2.$ $ $ $ $ $ $ $ $ $ P P P $ 8.$ $ ",
"$ $ $ $ $ $ $ $ $ $ $ $ $ $ 8.@ $ $ $ $ $ $ 8.$ $ $ $ $ $ $ $ $ $ $ $ $ $ $ 8.$ $ $ $ $ $ $ 2.$ $ $ $ $ $ $ $ $ $ $ $ $ $ 8.$ $ ",
"$ $ $ $ $ $ $ $ $ $ $ $ $ $ 8.@ $ $ $ $ $ $ 8.$ $ $ $ $ $ $ $ $ $ $ $ $ $ $ 8.$ $ $ $ $ $ $ 2.$ $ $ $ $ $ $ $ $ $ $ $ $ $ 8.$ $ ",
"8.8.8.8.8.8.8.8.8.8.8.8.8.8.8.8.8.8.8.8.8.8.8.8.8.8.8.8.8.8.8.8.8.8.8.8.8.8.8.8.8.8.8.8.8.8.8.8.8.8.8.8.8.8.8.8.8.8.8.8.8.8.8.8.",
"$ # # # $ $ $ 8.7.$ $ $ # # $ 8.$ $ $ $ $ $ $ $ $ # # # $ $ $ 8.$ $ $ $ # $ % 8.$ $ $ $ $ $ $ $ # # # $ $ $ 8.w $ $ $ # # $ 8.8.",
"$ O P P P <.P 7.] $ $ $ . P <.8.$ $ $ $ $ $ $ $ $ P P P Q <.$ 8.$ $ $ $ P P $ 7.$ $ $ $ $ $ $ $ u P P P <.F 8.$ $ $ $ m P ;.8.8.",
"$ $ $ . P P $ 7.] $ $ $ $ c P 8.$ $ $ $ $ $ $ $ $ $ $ P P P $ 8.$ $ $ $ $ P $ 7.$ $ $ $ $ $ $ $ $ $ S P P $ 8.$ $ $ $ $ P P 8.8.",
"$ $ $ $ $ $ $ 7.] $ $ $ $ $ $ 8.$ $ $ $ $ $ $ $ $ $ $ $ $ $ $ 8.$ $ $ $ $ $ $ 7.$ $ $ $ $ $ $ $ $ $ $ $ $ $ 8.$ $ $ $ $ $ $ 8.8.",
"$ $ $ $ $ $ $ 7.] $ $ $ $ $ $ 8.$ $ $ $ $ $ $ $ $ $ $ $ $ $ $ 8.$ $ $ $ $ $ $ 7.$ $ $ $ $ $ $ $ $ $ $ $ $ $ 8.$ $ $ $ $ $ $ 8.8.",
"8.8.8.8.8.8.8.8.8.8.8.8.8.8.8.8.8.8.8.8.8.8.8.8.8.8.8.8.8.8.8.8.8.8.8.8.8.8.8.8.8.8.8.8.8.8.8.8.8.8.8.8.8.8.8.8.8.8.8.8.8.8.8.8.",
"$ $ $   y F K U %.:.<.>.u $ 8.@ $ 5 K %.<.X 8.$ $ $ . + x J Y W -.<.<.G . $ 8.$ . F U <.{ $ 3.$ $ $   u F K U %.,.<.;.e $ 8.$ $ ",
"$ $ $ $ $ $ $ $ $ K P P ,.I 8.@ $ $ $ $ P <.8.$ $ $ $ $ $ $ $ $ $ P P P o.$ 8.$ $ $ $ P P $ 2.$ $ $ $ $ $ $ $ $ P P P <.5 8.$ $ ",
"$ $ $ $ $ $ $ $ $ $ $ P P $ 8.@ $ $ $ $ 4 c 8.$ $ $ $ $ $ $ $ $ $ $ P P . $ 8.$ $ $ $ $ P $ 2.$ $ $ $ $ $ $ $ $ $ . P P $ 8.$ $ ",
"$ $ $ $ $ $ $ $ $ $ $ $ $ $ 8.@ $ $ $ $ $ $ 8.$ $ $ $ $ $ $ $ $ $ $ $ $ $ $ 8.$ $ $ $ $ $ $ 2.$ $ $ $ $ $ $ $ $ $ $ $ $ $ 8.$ $ ",
"$ $ $ $ $ $ $ $ $ $ $ $ $ $ 8.Z $ $ $ $ $ $ 8.$ $ $ $ $ $ $ $ $ $ $ $ $ $ $ 8.$ $ $ $ $ $ 1 7.$ $ $ $ $ $ $ $ $ $ $ $ $ $ 8.$ $ ",
"8.8.8.8.8.8.8.8.8.8.8.8.8.8.8.8.8.8.8.8.8.8.8.8.8.8.8.8.8.8.8.8.8.8.8.8.8.8.8.8.8.8.8.8.8.8.8.8.8.8.8.8.8.8.8.8.8.8.8.8.8.8.8.8.",
"P W { <.<.I $ 7.] . S P W <.S 8.$ $ . p S P P P P ( ,.<.%.f $ 8.$ d P P ..;.$ 7.$ . - A H P P P ~ { <.<.H $ 8.$ . F P ~ <.j 8.8.",
"$ $ o P P ) P 7.] $ $ $ $ P <.8.$ $ $ $ $ $ $ $ $ $ P P P ,.$ 8.$ $ $ $ S P $ 7.$ $ $ $ $ $ $ $ $ D P P <.N 8.$ $ $ $ $ P &.8.8.",
"$ $ $ $ P P $ 7.] $ $ $ $ . M 8.$ $ $ $ $ $ $ $ $ $ $ P P . $ 8.$ $ $ $ $ P $ 7.$ $ $ $ $ $ $ $ $ $ $ P P $ 8.$ $ $ $ $ l . 8.8.",
"$ $ $ $ $ $ $ 7.] $ $ $ $ $ $ 8.$ $ $ $ $ $ $ $ $ $ $ $ $ $ $ 8.$ $ $ $ $ $ $ 7.$ $ $ $ $ $ $ $ $ $ $ $ $ $ 8.$ $ $ $ $ $ $ 8.8.",
"$ $ $ $ $ $ $ 8.7.$ $ $ $ $ $ 8.$ $ $ $ $ $ $ $ $ $ $ $ $ $ $ 8.$ $ $ $ $ $ ; 8.$ $ $ $ $ $ $ $ $ $ $ $ $ $ 8.C $ $ $ $ $ $ 8.8.",
"8.8.8.8.8.8.8.8.8.8.8.8.8.8.8.8.8.8.8.8.8.8.8.8.8.8.8.8.8.8.8.8.8.8.8.8.8.8.8.8.8.8.8.8.8.8.8.8.8.8.8.8.8.8.8.8.8.8.8.8.8.8.8.8.",
"$ $ $ $ . = E P P P P <.<.2 8.@ $ . T P L L 8.$ $ $ $ $ . j P P P P ` <.P $ 8.$ $ * P P <.$ 2.$ $ $ $ . = L P P P P <.:.$ 8.$ $ ",
"$ $ $ $ $ $ $ $ $ $ P P P i 8.@ $ $ $ $ P O.8.$ $ $ $ $ $ $ $ $ $ B P P P $ 8.$ $ $ $ . P $ 2.$ $ $ $ $ $ $ $ $ $ P P ... 8.$ $ "
};
